<svg xmlns="http://www.w3.org/2000/svg" width="34" height="34" viewBox="0 0 34 34">
	<g fill="none" fill-rule="evenodd">
		<rect width="24" height="24" x="5" y="5" fill="#FFF" rx="3" />
		<g transform="translate(8 7)">
			<path fill="#000"
				  d="M1.392 5h10.192c.655 0 .687.09.647.636l-1.188 11.743c-.063.532-.11.64-.69.64H2.606c-.58 0-.628-.108-.69-.64L.743 5.636C.704 5.096.736 5 1.392 5zm11.164-2.092s.063.216.158.605c.13.515.178.463-.257.459H.51c-.434 0-.383.056-.256-.459C.352 3.13.4 2.951.4 2.951c.103-.402.379-.44.762-.51l2.102-.323c.26-.052.26-.052.363-.294.344-.852.447-.832.822-.832h4.07c.375 0 .481-.02.825.828.103.246.103.246.363.294l2.098.323c.387.069.648.069.751.471z" />
			<circle cx="13.5" cy="13.5" r="6.5" fill="#000" stroke="#FFF" stroke-width="1.5" />
			<path fill="#FFF"
				  d="M17.818 13.972c.09.156.141.322.141.498 0 .352-.232.723-.553.899a1.297 1.297 0 0 1-.574.127h-.665l-1.107-1.764 1.922-1.065.836 1.305zm-.12 1.754-1.26 2.132a.562.562 0 0 1-.492.264l-.825.005v.752l-1.33-1.864 1.34-1.813v.763l1.801-.005c.302 0 .554-.078.765-.234zm-4.676-6.2a1.222 1.222 0 0 0-.594-.528h2.477c.221 0 .392.089.493.255l.606 1.254.665-.381-.94 2.354-2.346-.426.674-.37-1.035-2.158zm-2.672 7.561c0-.156.07-.42.171-.586l.309-.52 2.192-.003.024 2.094-1.639.004c-.574 0-1.057-.432-1.057-.989zm.508-7.276a.989.989 0 0 1 .886-.499c.413 0 .735.186.967.567l.342.557-1.155 2.273-2.003-1.399.963-1.5zm-.762 6.598c-.1.176-.18.44-.18.606a1 1 0 0 0 .01.156l-1.26-2.1a.533.533 0 0 1-.07-.254c0-.089.03-.196.07-.264l.52-1.019-.693-.397 2.332-.215.949 2.068-.684-.381-.994 1.8z" />
		</g>
	</g>
</svg>
