<svg xmlns="http://www.w3.org/2000/svg" width="34" height="34" viewBox="0 0 34 34">
	<g fill="none" fill-rule="evenodd">
		<path stroke="#fff" d="m18.293 7.198 11.13 19.057a1.5 1.5 0 0 1-1.296 2.257H5.807a1.5 1.5 0 0 1-1.293-2.26l11.19-19.057a1.5 1.5 0 0 1 2.589.003z"/>
		<path fill="#fff" stroke="#b80707" stroke-linejoin="square" stroke-width="1.8" d="M17.079 8.606a.1.1 0 0 0-.173 0L6.289 26.846a.1.1 0 0 0 .087.15H27.42a.1.1 0 0 0 .087-.15z"/>
		<path stroke="#fff" d="m18.294 7.912 10.428 18.24a1.5 1.5 0 0 1-1.302 2.244H6.376a1.5 1.5 0 0 1-1.297-2.254l10.617-18.24a1.5 1.5 0 0 1 2.598.01z"/>
		<path fill="#3aaa35" d="M16.989 22.23a1.748 1.748 0 1 1 0 3.495 1.748 1.748 0 0 1 0-3.496z"/>
		<path fill="#f39200" d="M16.989 18.23a1.748 1.748 0 1 1 0 3.495 1.748 1.748 0 0 1 0-3.496z"/>
		<path fill="#d92400" d="M16.989 14.23a1.748 1.748 0 1 1 0 3.495 1.748 1.748 0 0 1 0-3.496z"/>
	</g>
</svg>
