<svg xmlns="http://www.w3.org/2000/svg" width="28" height="28" viewBox="0 0 28 28">
	<g fill="none" fill-rule="evenodd">
		<path stroke="#FFF"
			  d="m15.295 6.538 7.86 13.72a1.5 1.5 0 0 1-1.302 2.245H6.141a1.5 1.5 0 0 1-1.302-2.245l7.853-13.72a1.5 1.5 0 0 1 2.603 0z" />
		<path fill="#FFF" stroke="#B80707" stroke-linejoin="square" stroke-width="1.7"
			  d="M14.124 7.208a.15.15 0 0 0-.26 0L6.01 20.928a.15.15 0 0 0 .13.225h15.722a.15.15 0 0 0 .13-.225l-7.869-13.72z" />
		<path stroke="#FFF"
			  d="m15.295 6.536 7.87 13.72a1.5 1.5 0 0 1-1.302 2.247H6.141a1.5 1.5 0 0 1-1.302-2.245l7.853-13.72a1.5 1.5 0 0 1 2.603-.002z" />
		<path fill="#3AAA35"
			  d="M13.99 17.854c.788 0 1.427.544 1.427 1.216 0 .671-.639 1.216-1.426 1.216-.788 0-1.426-.545-1.426-1.216 0-.672.638-1.216 1.426-1.216z" />
		<path fill="#F39200"
			  d="M13.99 14.853c.788 0 1.427.544 1.427 1.215 0 .672-.639 1.216-1.426 1.216-.788 0-1.426-.544-1.426-1.216 0-.671.638-1.215 1.426-1.215z" />
		<path fill="#D92400"
			  d="M13.99 11.789c.788 0 1.427.544 1.427 1.216 0 .671-.639 1.216-1.426 1.216-.788 0-1.426-.545-1.426-1.216 0-.672.638-1.216 1.426-1.216z" />
	</g>
</svg>
