<svg xmlns="http://www.w3.org/2000/svg" width="40" height="40" viewBox="0 0 40 40">
	<g fill="none" fill-rule="evenodd">
		<path fill="#FFF" stroke="#000"
			  d="M21.714 9.467a2 2 0 0 0-3.432-.002L6.747 28.715A2.5 2.5 0 0 0 8.892 32.5h22.186a2.5 2.5 0 0 0 2.146-3.783l-11.51-19.25z" />
		<path fill="#FFF" stroke="#B80707" stroke-linejoin="square" stroke-width="1.8"
			  d="M20.079 11.606a.1.1 0 0 0-.173 0L9.289 29.846a.1.1 0 0 0 .087.15H30.42a.1.1 0 0 0 .087-.15l-10.428-18.24z" />
		<path stroke="#FFF"
			  d="m21.294 10.912 10.428 18.24a1.5 1.5 0 0 1-1.302 2.244H9.376a1.5 1.5 0 0 1-1.297-2.254l10.617-18.24a1.5 1.5 0 0 1 2.598.01z" />
		<path fill="#3AAA35" d="M19.989 25.23a1.748 1.748 0 1 1 0 3.495 1.748 1.748 0 0 1 0-3.496z" />
		<path fill="#F39200" d="M19.989 21.23a1.748 1.748 0 1 1 0 3.495 1.748 1.748 0 0 1 0-3.496z" />
		<path fill="#D92400" d="M19.989 17.23a1.748 1.748 0 1 1 0 3.495 1.748 1.748 0 0 1 0-3.496z" />
	</g>
</svg>
