<svg xmlns="http://www.w3.org/2000/svg" width="22" height="22" viewBox="0 0 22 22">
	<g fill="none" fill-rule="evenodd">
		<path stroke="#FFF"
			  d="m12.392 5.842 5.712 10.22a1 1 0 0 1-.873 1.488H5.811a1 1 0 0 1-.872-1.488l5.707-10.22a1 1 0 0 1 1.746 0z" />
		<path fill="#FFF" stroke="#B80707" stroke-linejoin="square" stroke-width="1.5"
			  d="M11.52 6.843 6.237 16.3h10.574l-5.293-9.457z" />
		<path stroke="#FFF"
			  d="m12.392 5.842 5.719 10.22a1 1 0 0 1-.873 1.488H5.812a1 1 0 0 1-.873-1.487l5.707-10.22a1 1 0 0 1 1.746 0z" />
		<path fill="#FFF" d="M9.675 9.736h3.673V11H9.675z" />
		<path fill="#3AAA35"
			  d="M11.492 13.927c.657 0 1.189.272 1.189.608 0 .336-.532.608-1.189.608-.656 0-1.188-.272-1.188-.608 0-.336.532-.608 1.188-.608z" />
		<path fill="#F39200"
			  d="M11.492 11.926c.657 0 1.189.272 1.189.608 0 .336-.532.608-1.189.608-.656 0-1.188-.272-1.188-.608 0-.336.532-.608 1.188-.608z" />
		<path fill="#D92400"
			  d="M11.492 9.894c.657 0 1.189.273 1.189.608 0 .336-.532.608-1.189.608-.656 0-1.188-.272-1.188-.608 0-.335.532-.608 1.188-.608z" />
	</g>
</svg>
