<svg xmlns="http://www.w3.org/2000/svg" width="28" height="28" viewBox="0 0 28 28">
	<g fill="none" fill-rule="evenodd">
		<path stroke="#fff" d="m15.295 6.538 7.86 13.72a1.5 1.5 0 0 1-1.302 2.245H6.141a1.5 1.5 0 0 1-1.302-2.245l7.853-13.72a1.5 1.5 0 0 1 2.603 0z"/>
		<path fill="#fff" stroke="#b80707" stroke-linejoin="square" stroke-width="1.7" d="M14.124 7.208a.15.15 0 0 0-.26 0L6.01 20.928a.15.15 0 0 0 .13.225h15.722a.15.15 0 0 0 .13-.225l-7.869-13.72z"/>
		<path stroke="#fff" d="m15.295 6.536 7.87 13.72a1.5 1.5 0 0 1-1.302 2.247H6.141a1.5 1.5 0 0 1-1.302-2.245l7.853-13.72a1.5 1.5 0 0 1 2.603-.002z"/>
		<path fill="#000" d="m15.08 17.505-.789-.851-.017-.018s-.646.033-.65-.655l-.012-.532-.563-.182-.043.39-1.156-.514.395-.348-.297-.351-.163.303s-.573-.196-.357-.718l.66-1.134c.08-.13.299-.13.299-.13l1.221.002c.384 0 .415.69.415.69l-.007 2.408 1.57 1.139.517-.89c.138-.108.102-.142.273-.128a.55.55 0 0 1 .388.183l1.612 2.576c.08.113-.009.24-.107.236h-3.975c-.118 0-.184-.144-.102-.255l.804-1.223s.034.004.084.002m.07-.007a.36.36 0 0 0 .206-.097l.113-.194a7 7 0 0 1-.32.291zm-1.538-2.05.066.022-.068-.746-.676.506.115.037.008-.076.554.222zm-1.55-1.217.292.347.732-1.162-.658-.006zm-.287 1.036 1.109.525s.153-.335.763.772v2.418s-.668-.098-.668-.8v-1.424l-.652-.583-1.884 2.881s-.629-.303-.384-.818zm2.108-3.033c0-.397.307-.718.685-.718s.686.321.686.718-.307.717-.686.717c-.378 0-.685-.321-.685-.717"/>
	</g>
</svg>
