<svg xmlns="http://www.w3.org/2000/svg" width="22" height="22" viewBox="0 0 22 22">
	<g fill="none" fill-rule="evenodd">
		<path stroke="#FFF"
			  d="m12.392 5.842 5.712 10.22a1 1 0 0 1-.873 1.488H5.811a1 1 0 0 1-.872-1.488l5.707-10.22a1 1 0 0 1 1.746 0z" />
		<path fill="#FFF" stroke="#B80707" stroke-linejoin="square" stroke-width="1.5"
			  d="M11.52 6.843 6.237 16.3h10.574l-5.293-9.457z" />
		<path stroke="#FFF"
			  d="m12.392 5.842 5.719 10.22a1 1 0 0 1-.873 1.488H5.812a1 1 0 0 1-.873-1.487l5.707-10.22a1 1 0 0 1 1.746 0z" />
		<path fill="#000"
			  d="m12.047 14.34-.366-.396-.008-.008s-.3.015-.302-.305l-.006-.247-.261-.084-.02.18-.537-.238.183-.162-.138-.163-.075.141s-.267-.091-.166-.333l.306-.527c.038-.06.139-.06.139-.06h.849c.178 0 .192.321.192.321l-.284 1.118.73.53.24-.414c.063-.05.047-.066.126-.06a.253.253 0 0 1 .18.086l.749 1.196c.037.053-.004.111-.05.11h-1.846c-.055 0-.086-.067-.047-.119l.373-.568s.016.002.039.001zm.032-.004a.167.167 0 0 0 .096-.045l.053-.09a3.305 3.305 0 0 1-.149.135zm-.714-.952.03.01-.03-.347-.315.235.054.018.003-.036.258.103v.017zm-.72-.565.136.16.34-.54-.306-.002-.17.382zm-.133.48.515.245s.071-.156.354.358v1.123s-.31-.046-.31-.372v-.66l-.303-.272-1.092 1.095s-.589-.041-.475-.28l1.311-1.236zm1.166-1.418c0-.26.202-.472.45-.472.25 0 .451.211.451.472 0 .26-.201.472-.45.472a.462.462 0 0 1-.45-.472z" />
		<path fill="#000"
			  d="m12.047 14.34-.366-.396s-.308.007-.31-.313l-.006-.247-.261-.084-.02.18-.537-.238.183-.162-.138-.163-.075.141s-.267-.091-.166-.333l.306-.527c.038-.06.139-.06.139-.06h.849c.178 0 .192.321.192.321l-.284 1.118.73.53.24-.414c.063-.05.047-.066.126-.06a.253.253 0 0 1 .18.086l.749 1.196c.037.053-.004.111-.05.11h-1.846c-.055 0-.086-.067-.047-.119l.373-.568s.016.002.039.001zm.032-.004a.167.167 0 0 0 .096-.045l.053-.09a3.305 3.305 0 0 1-.149.135zm-.714-.952.03.01-.03-.347-.315.235.054.018.003-.036.258.103v.017zm-.72-.565.136.16.34-.54-.306-.002-.17.382zm-.133.48.515.245s.071-.156.354.358v1.123s-.31-.046-.31-.372v-.66l-.303-.272-1.092 1.095s-.589-.041-.475-.28l1.311-1.236zm1.166-1.418c0-.26.248-.881.497-.881s.9.416.9.676c0 .261-.697.677-.946.677a.462.462 0 0 1-.45-.472z"
			  opacity=".5" />
	</g>
</svg>
