<svg xmlns="http://www.w3.org/2000/svg" width="40" height="40" viewBox="0 0 40 40">
	<g fill="none" fill-rule="evenodd">
		<path fill="#FFF" stroke="#000"
			  d="M21.714 9.467a2 2 0 0 0-3.432-.002L6.747 28.715A2.5 2.5 0 0 0 8.892 32.5h22.186a2.5 2.5 0 0 0 2.146-3.783l-11.51-19.25z" />
		<path fill="#FFF" stroke="#B80707" stroke-linejoin="square" stroke-width="1.8"
			  d="M20.079 11.606a.1.1 0 0 0-.173 0L9.289 29.846a.1.1 0 0 0 .087.15H30.42a.1.1 0 0 0 .087-.15l-10.428-18.24z" />
		<path stroke="#FFF"
			  d="m21.294 10.912 10.428 18.24a1.5 1.5 0 0 1-1.302 2.244H9.376a1.5 1.5 0 0 1-1.297-2.254l10.617-18.24a1.5 1.5 0 0 1 2.598.01z" />
		<path fill="#000"
			  d="M20.004 19.013c.107.53.483.956.972 1.113l-.01 3.417 1.92 1.685.721-1.092c.201-.158.15-.208.4-.188.242.02.393.091.567.268l2.311 3.402c.117.165-.013.35-.157.344h-5.767c-.173 0-.269-.21-.148-.373l1.175-1.65s.05.005.123.002l-1.154-1.244-.024-.026s-.945.049-.95-.958l-.019-.778-.823-.267-.063.57-1.37-.751.257-.509-.434-.513-.238.443s-.839-.287-.523-1.05l.965-1.658c.119-.19.437-.19.437-.19l1.832.003zm2.209 6.918a.527.527 0 0 0 .302-.141l.232-.351a9.548 9.548 0 0 1-.534.492zm-2.249-2.996.097.03-.1-1.091-.988.74.168.054.012-.11.81.324.001.053zm-2.266-1.781.427.508 1.07-1.7-.963-.008-.534 1.2zm-.1 1.515 1.301.768s.225-.491 1.116 1.128v3.4s-.977-.008-.977-1.035v-2.08l-.952-.853-2.345 4.214s-.919-.444-.561-1.196l2.419-4.345zm2.671-3.933c0-.58.449-1.05 1.002-1.05.554 0 1.002.47 1.002 1.05 0 .58-.448 1.05-1.002 1.05-.553 0-1.002-.47-1.002-1.05z" />
	</g>
</svg>
