<svg xmlns="http://www.w3.org/2000/svg" width="34" height="34" viewBox="0 0 34 34">
	<g fill="none" fill-rule="evenodd">
		<rect width="23" height="23" x="5.5" y="5.5" fill="#035799" stroke="#fff" rx="3"/>
		<path fill="#fff" d="m11 18.073-.001 1.337c-.929.873-1.018 2.338-.512 3.67.193.51.285.941.717 1.282 1.358 1.072 3.271.763 4.273-.69.319-.461.228-.953.283-1.506.035-.362.173-.78.18-1.166h1.042c.381 2.137-.797 4.282-2.785 4.93a3.8 3.8 0 0 1-2.086.077c-2.169-.538-3.52-2.855-3.018-5.175.16-.738.499-1.417.982-1.97a4.1 4.1 0 0 1 .925-.789m2.247-5.456a1.26 1.26 0 0 1 1.258 1.258v1.875h2.336c.651 0 1.187.495 1.251 1.13l.007.128h-3.594v1.297h3.253c.677 0 1.263.473 1.405 1.135l1.858 6.646a1.44 1.44 0 0 1-1.697-1.055L17.934 21H18l-.335-1h-.235a.4.4 0 0 0-.1-.015h-4.083a1.26 1.26 0 0 1-1.248-1.096L12 17h-.011v-3.125c0-.695.563-1.258 1.258-1.258m10.276-3.541c.455.117.937.335 1.21.653s.276.775.283 1.372c-.004.656-.195.948-.633 1.337-.438.388-.818.53-1.54.605h-1.291v2.92h-1.555v-6.99h2.164c.554-.003.908-.015 1.362.103m-1.172.892-.799.003v2.097l.8.002c.308.003.577-.062.788-.196a.91.91 0 0 0 .428-.787c-.008-.41-.195-.79-.406-.923s-.502-.198-.81-.196Zm-8.83-.86a1.438 1.438 0 1 1 0 2.876 1.438 1.438 0 0 1 0-2.875Z"/>
	</g>
</svg>
