<svg xmlns="http://www.w3.org/2000/svg" width="34" height="34" viewBox="0 0 34 34">
	<g fill="none" fill-rule="evenodd">
		<rect width="24" height="24" x="5" y="5" fill="#FFF" rx="3" />
		<path fill="#000" d="M25 22h2v4h-2v-4zm-3 0h2v4h-2v-4zm-3 0h2v4h-2v-4zm-3 0h2v4h-2v-4zm-3 0h2v4h-2v-4z" />
		<g fill="#000">
			<path d="m15.95 7.968-.016.96c-2.122-.003-2.012.488-2.484 2.134l7-.017.46-1.082c-1.568-.348-2.004-.534-1.694-.958h3.508l.035.975-.942.017-.46 1.065.1.225s3.573 6.074 3.578 6.28c-.049.61-1.106.353-5.27.393-1.944 0-.818.83-6.706-5.382-.03.096-.232.521-.232.521s-1.175 3.491-1.75 4.687c-.14.291-.326.257-.415.266a.411.411 0 0 1-.397-.41c.007-.276 1.424-3.85 1.424-3.85l.101-.317c1.574-5.06 1.234-5.479 4.16-5.507zm-2.199 3.938 4.575 4.49 1.77-4.502-6.345.012zm7.171.41L18.98 17.01l4.71.008-2.618-4.399-.149-.303z" />
			<path d="m15.95 7.968-.016.96c-2.122-.003-2.012.488-2.484 2.134l7-.017.46-1.082c-1.568-.348-2.004-.534-1.694-.958h3.508l.035.975-.942.017-.46 1.065.1.225s3.573 6.074 3.578 6.28c-.049.61-1.106.353-5.27.393-1.944 0-.818.83-6.706-5.382-.03.096-.232.521-.232.521s-1.175 3.491-1.75 4.687c-.14.291-.326.257-.415.266a.411.411 0 0 1-.397-.41c.007-.276 1.424-3.85 1.424-3.85l.101-.317c1.574-5.06 1.234-5.479 4.16-5.507zm-2.199 3.938 4.575 4.49 1.77-4.502-6.345.012zm7.171.41L18.98 17.01l4.71.008-2.618-4.399-.149-.303z"
				  opacity=".2" />
			<path d="M24.003 13a3.995 3.995 0 1 1 0 7.99 3.995 3.995 0 0 1 0-7.99zm0 .882a3.112 3.112 0 1 0 0 6.225 3.112 3.112 0 0 0 0-6.225zM10.966 13a3.995 3.995 0 1 1 0 7.99 3.995 3.995 0 0 1 0-7.99zm0 .882a3.112 3.112 0 1 0 0 6.225 3.112 3.112 0 0 0 0-6.225z" />
			<path d="M24.003 13a3.995 3.995 0 1 1 0 7.99 3.995 3.995 0 0 1 0-7.99zm0 .882a3.112 3.112 0 1 0 0 6.225 3.112 3.112 0 0 0 0-6.225zM10.966 13a3.995 3.995 0 1 1 0 7.99 3.995 3.995 0 0 1 0-7.99zm0 .882a3.112 3.112 0 1 0 0 6.225 3.112 3.112 0 0 0 0-6.225z"
				  opacity=".4" />
		</g>
	</g>
</svg>
