<svg xmlns="http://www.w3.org/2000/svg" width="34" height="34" viewBox="0 0 34 34">
	<g fill="none" fill-rule="evenodd">
		<rect width="24" height="24" x="5" y="5" fill="#FFF" rx="3" />
		<path fill="#000" stroke="#000" stroke-linejoin="round" stroke-width=".5"
			  d="m16.357 21.778-.54 4.013c-.104.767-.797 1.303-1.547 1.195-.764-.11-1.288-.842-1.16-1.62l1.471-8.302-2.957 1.811a1.111 1.111 0 0 1-1.527-.561 1.154 1.154 0 0 1 .506-1.48c.981-.52 3.052-1.905 3.665-2.214 1.305-.659 2.693-.62 2.693-.62h.077s1.388-.039 2.695.62c.613.31 2.683 1.693 3.665 2.214.525.279.745.926.506 1.48a1.112 1.112 0 0 1-1.528.561l-2.958-1.811 1.472 8.303c.128.777-.396 1.509-1.16 1.619-.75.108-1.444-.428-1.547-1.195l-.54-4.013s-.13-.681-.643-.681c-.532 0-.643.681-.643.681Z" />
		<path stroke="#FFF" stroke-linejoin="round" d="M21.18 19.451h-8.338" />
		<path fill="#000" d="M20.01 9.993a3 3 0 1 1-6 0 3 3 0 0 1 6 0Z" />
	</g>
</svg>
