<svg xmlns="http://www.w3.org/2000/svg" width="40" height="40" viewBox="0 0 40 40">
	<g fill="none" fill-rule="evenodd">
		<rect width="25" height="25" x="7.5" y="7.5" fill="#FFF" stroke="#000" rx="4" />
		<path fill="#000" fill-rule="nonzero"
			  d="M20.75 14.397c2.54-2.115 6.077-3.148 8.592-1.775.405.22.657.654.657 1.125V25.06a.5.5 0 0 1-.632.481c-.457-.13-.773-.222-.95-.275-2.444-.74-5.52.327-7.772 2.25a.99.99 0 0 1-1.291-.001c-2.252-1.922-5.327-2.99-7.771-2.249-.177.053-.493.145-.95.275a.5.5 0 0 1-.633-.48V13.746c0-.471.253-.905.658-1.125 2.515-1.372 6.051-.34 8.591 1.775V25.07c.008.627.258.94.751.94s.743-.313.75-.94Z" />
	</g>
</svg>
