<svg xmlns="http://www.w3.org/2000/svg" width="34" height="34" viewBox="0 0 34 34">
	<g fill="none" fill-rule="evenodd">
		<rect width="24" height="24" x="5" y="5" fill="#FFF" rx="3" />
		<path fill="#000"
			  d="m16.051 12.999 2.023.005 2.403 3.029 2.37-3.03h2.112a2 2 0 0 1 2 2v8.966H14.013l.031-8.975a2.006 2.006 0 0 1 2.007-1.995Z" />
		<circle cx="20.498" cy="9.488" r="3.498" fill="#000" />
		<g fill-rule="nonzero">
			<path fill="#FFF" stroke="#FFF" stroke-width="1.5"
				  d="M21.873 20.944v1.85h1.67v2.75h-1.67v1.85h-2.86v-1.85h-1.67v-2.75h1.67v-1.85h2.86Z" />
			<path fill="#FFF" stroke="#FFF" stroke-width="1.5"
				  d="M14.975 19.314c1.041 0 1.855.42 2.446 1.25.516.725.804 1.753.804 3.11 0 1.364-.289 2.395-.804 3.12-.59.83-1.405 1.25-2.446 1.25-1.041 0-1.855-.42-2.446-1.25-.515-.725-.804-1.756-.804-3.12 0-.652.068-1.228.2-1.73a4.132 4.132 0 0 1 .62-1.377 2.99 2.99 0 0 1 1.053-.928 2.93 2.93 0 0 1 1.377-.325Zm-.057 2.758-.04.025c-.057.045-.134.131-.179.143l.214.015-.04.124a2.8 2.8 0 0 0-.083.438 7.44 7.44 0 0 0-.045.857c0 .315.015.603.045.863.025.22.065.408.123.566.012.032.055.04.116.037l.01-.027c.056-.16.095-.353.121-.576.03-.26.045-.548.045-.863 0-.314-.015-.6-.045-.857a2.657 2.657 0 0 0-.122-.572.408.408 0 0 0-.093-.172l-.027-.001Z" />
			<path fill="#FFF" stroke="#FFF" stroke-width="1.5"
				  d="m12.16 19.417.045.709.04.602.02.304.02.315.049.782-.783.015a5.29 5.29 0 0 0-.565.04l-.058.008.043.017c.346.133.637.309.877.522l.138.132c.273.283.471.612.594.99.11.339.167.7.167 1.081 0 .346-.061.701-.187 1.065-.128.37-.322.706-.582 1.007-.26.3-.588.55-.99.743-.395.191-.861.295-1.401.295-1.1 0-1.914-.376-2.48-1.063-.528-.642-.82-1.52-.82-2.657 0-.773.124-1.455.364-2.05a4.23 4.23 0 0 1 1.075-1.569 4.604 4.604 0 0 1 1.656-.957 6.428 6.428 0 0 1 1.743-.314l.324-.01.71-.007ZM9.711 24.68c-.055-.059-.16-.05-.335-.018l-.073.013v.014c.007.061.014.121.024.18.02.13.05.244.1.34a.22.22 0 0 0 .068.09c.022.014.052.006.08.006.013 0 .029.008.04.002a.22.22 0 0 0 .066-.06.383.383 0 0 0 .058-.12.634.634 0 0 0 .027-.172c0-.108.004-.21-.055-.275Z" />
			<path fill="#000"
				  d="M18.094 23.544h1.67v-1.85h1.36v1.85h1.67v1.25h-1.67v1.85h-1.36v-1.85h-1.67zm-.619.13c0 1.167-.222 2.062-.665 2.685-.443.623-1.055.935-1.835.935s-1.392-.312-1.835-.935c-.443-.623-.665-1.518-.665-2.685 0-.58.058-1.093.175-1.54a3.39 3.39 0 0 1 .505-1.13c.22-.307.483-.54.79-.7.307-.16.65-.24 1.03-.24.78 0 1.392.312 1.835.935.443.623.665 1.515.665 2.675Zm-1.52 0c0-.347-.017-.662-.05-.945a3.4 3.4 0 0 0-.16-.735 1.14 1.14 0 0 0-.3-.48.68.68 0 0 0-.47-.17.66.66 0 0 0-.465.17 1.21 1.21 0 0 0-.3.48 3.2 3.2 0 0 0-.165.735c-.033.283-.05.598-.05.945s.017.663.05.95c.033.287.088.533.165.74.077.207.177.367.3.48a.66.66 0 0 0 .465.17.68.68 0 0 0 .47-.17 1.14 1.14 0 0 0 .3-.48c.073-.207.127-.453.16-.74s.05-.603.05-.95Zm-6.548.22c-.147 0-.304.013-.47.04a1.385 1.385 0 0 0-.39.11c0 .027-.002.067-.005.12a4.406 4.406 0 0 0 .045.82c.033.213.09.4.17.56.08.16.186.285.32.375.133.09.3.135.5.135a.812.812 0 0 0 .425-.105.962.962 0 0 0 .29-.265c.076-.107.133-.225.17-.355a1.38 1.38 0 0 0 .055-.375c0-.34-.085-.602-.255-.785-.17-.183-.455-.275-.855-.275Zm.19-1.16c.433 0 .801.058 1.105.175.303.117.551.275.745.475.193.2.333.433.42.7.086.267.13.55.13.85 0 .267-.049.54-.145.82a2.29 2.29 0 0 1-.44.76 2.305 2.305 0 0 1-.75.56c-.304.147-.662.22-1.075.22-.834 0-1.467-.263-1.9-.79-.434-.527-.65-1.253-.65-2.18 0-.667.103-1.257.31-1.77a3.49 3.49 0 0 1 .885-1.295 3.85 3.85 0 0 1 1.39-.8 5.904 5.904 0 0 1 1.835-.285l.04.605.04.615c-.34.007-.659.038-.955.095a3.165 3.165 0 0 0-.81.265c-.244.12-.455.275-.635.465s-.32.422-.42.695a1.85 1.85 0 0 1 .45-.14c.153-.027.296-.04.43-.04Z" />
		</g>
	</g>
</svg>
