<svg xmlns="http://www.w3.org/2000/svg" width="40" height="40" viewBox="0 0 40 40">
	<g fill="none" fill-rule="evenodd">
		<rect width="25" height="25" x="7.5" y="7.5" fill="#FFF" stroke="#000" rx="4" />
		<g transform="matrix(-1 0 0 1 32 10)">
			<path fill="#000"
				  d="M17 20v-7a5 5 0 0 0-5-5H5.42a2.4 2.4 0 0 0-2.4 2.42l.052 6.376c0 .665.559 1.204 1.248 1.204H10v1.994L17 20Z" />
			<path stroke="#FFF" stroke-width="1.5" d="M9.257 20.782V9.69a2.4 2.4 0 0 1 2.4-2.4H15.9" />
			<path stroke="#FFF" d="M9.119 11.54H1.336" />
			<path stroke="#FFF" stroke-linecap="round" stroke-width="1.5" d="M5.5 12v1" />
			<path fill="#000" stroke="#000" stroke-width="1.25" d="M16.466 3.556a3 3 0 1 1-6 0 3 3 0 0 1 6 0Z" />
			<rect width="5" height="3" x="15" y="15" fill="#000" rx="1" />
		</g>
	</g>
</svg>
