<svg xmlns="http://www.w3.org/2000/svg" width="40" height="40" viewBox="0 0 40 40">
	<g fill="none" fill-rule="evenodd">
		<rect width="25" height="25" x="7.5" y="7.5" fill="#FFF" stroke="#000" rx="4" />
		<path fill="#000"
			  d="m15.205 18.99 2.568.005c.47 1.335 1.212 2.002 2.228 2.002 1.016 0 1.748-.667 2.196-2.002h2.185c.963 0 1.81.638 2.076 1.564l2.707 9.425H13.01l.029-8.84a2.166 2.166 0 0 1 2.167-2.155Z" />
		<path stroke="#FFF" stroke-width="1.5"
			  d="M24.067 27.5c.345 1.01-5.287-2.833-7.032-4.663-1.163-1.22-1.745-2.556-1.745-4.01V17.73" />
		<path fill="#FFF" d="M22 26h2.388l1.429 4H22z" />
		<g transform="translate(12.991 9.985)">
			<path stroke="#000"
				  d="M7.024-.5c1.395 0 2.658.565 3.572 1.48a5.043 5.043 0 0 1 1.456 4.072H1.996A5.043 5.043 0 0 1 3.45.98 5.036 5.036 0 0 1 7.024-.5Z" />
			<rect width="14.018" height="4" y="2.552" fill="#000" rx="1.2" />
			<circle cx="7.024" cy="4.552" r="3.988" fill="#000" stroke="#FFF" stroke-width="1.14" />
			<path fill="#FFF" d="M2.471 4.552h1v3h-1zm8.105 0h1v3h-1z" />
		</g>
	</g>
</svg>
