<svg xmlns="http://www.w3.org/2000/svg" width="40" height="40" viewBox="0 0 40 40">
	<g fill="none" fill-rule="evenodd">
		<g transform="rotate(90 20 20)">
			<circle cx="20" cy="20" r="11.5" fill="#fff" stroke="#000"/>
			<circle cx="20" cy="20" r="8.75" fill="#fff" stroke="#b80707" stroke-linejoin="square" stroke-width="2.5"/>
			<circle cx="20" cy="20" r="10.5" stroke="#fff"/>
		</g>
		<path fill="#000" d="M27.33 19.91c0 2.396-.705 2.883-1.274 3.997-1.327-1.206-2.245-2.794-3.78-3.934 1.748-1.346 2.674-3.016 3.78-4.062.573 1.118 1.274 1.624 1.274 4zm-14.762 0c0-2.375.7-2.88 1.273-4 1.106 1.047 2.032 2.717 3.78 4.063-1.534 1.14-2.452 2.728-3.78 3.934-.57-1.114-1.273-1.601-1.273-3.997"/>
	</g>
</svg>
