<svg xmlns="http://www.w3.org/2000/svg" width="28" height="28" viewBox="0 0 28 28">
	<g fill="none" fill-rule="evenodd">
		<g transform="rotate(90 14 14)">
			<circle cx="14" cy="14" r="9" fill="#fff"/>
			<circle cx="14" cy="14" r="6.9" fill="#fff" stroke="#b80707" stroke-linejoin="square" stroke-width="2.2"/>
			<circle cx="14" cy="14" r="8.5" stroke="#fff"/>
		</g>
		<path fill="#000" d="M19.95 13.949c0 1.972-.752 1.966-1.31 2.884-1.3-.994-1.187-1.894-2.69-2.833 1.712-1.109 1.6-2.086 2.684-2.947.562.921 1.316.94 1.316 2.896m-12 0c0-1.957.754-1.975 1.316-2.896 1.083.861.972 1.838 2.684 2.947-1.503.94-1.39 1.84-2.69 2.833-.558-.918-1.31-.912-1.31-2.884"/>
	</g>
</svg>
