<svg xmlns="http://www.w3.org/2000/svg" width="22" height="22" viewBox="0 0 22 22">
	<g fill="none" fill-rule="evenodd">
		<g transform="rotate(90 11 11)">
			<circle cx="11" cy="11" r="6" fill="#FFF" />
			<circle cx="11" cy="11" r="4.25" fill="#FFF" stroke="#B80707" stroke-linejoin="square" stroke-width="1.5" />
			<circle cx="11" cy="11" r="5.5" stroke="#FFF" />
		</g>
		<path fill="#000"
			  d="M7.59 10.961c0-1.046.588-1.736.84-2.228.487.46 1.032 1.66 1.802 2.253-.676.502-1.22 1.722-1.805 2.253-.25-.49-.837-1.223-.837-2.278zm6.834.036c0 1.054-.587 1.787-.837 2.278-.585-.532-1.129-1.751-1.805-2.254.77-.592 1.315-1.792 1.802-2.253.252.493.84 1.182.84 2.229z" />
	</g>
</svg>
