<svg xmlns="http://www.w3.org/2000/svg" width="40" height="40" viewBox="0 0 40 40">
	<g fill="none" fill-rule="evenodd">
		<g stroke-linejoin="square">
			<rect width="24" height="24" x="8" y="8" fill="#035799" stroke="#fff" stroke-width="2" rx="4"/>
			<rect width="25" height="25" x="7.5" y="7.5" stroke="#000" rx="4"/>
		</g>
		<path fill="#fff" d="M13.499 21.01h7.946a1 1 0 0 0 .991-1.13l-.392-2.977a1 1 0 0 0-.991-.87h-7.108a1 1 0 0 0-.989.853l-.446 2.977a1 1 0 0 0 .989 1.148ZM20 23.657c0-.8.467-1.297 1-1.297s1 .497 1 1.297-.467 1.016-1 1.016-1-.216-1-1.016m-7 0c0-.8.467-1.297 1-1.297s1 .497 1 1.297-.467 1.016-1 1.016-1-.216-1-1.016m4.796-10.78c2.715.012 4.364.192 5.207 1.013l-.004.135v3.8c0 .722.384 1.356.959 1.707q.042.855.042 1.479v4.177q0 .71-.99.875v1.177c0 .473-.326.79-.813.79h-.374c-.488 0-.813-.317-.813-.79v-1.244h-7.011v1.244c0 .473-.369.79-.856.79h-.41c-.487 0-.728-.317-.728-.79v-1.177Q11 25.898 11 25.188v-4.17q0-1.66.338-4.983c0-2.763 1.662-3.158 6.162-3.158Zm9.727-1.772c.455.118.937.335 1.21.654.272.317.276.774.283 1.371-.004.656-.195.948-.633 1.337-.438.388-.818.53-1.54.605h-1.291v2.92h-1.555v-6.989h2.164c.554-.003.908-.016 1.362.102m-7.024 2.92h-6a.5.5 0 0 0 0 1h6a.5.5 0 1 0 0-1m5.852-2.027-.799.002v2.098l.8.001c.308.004.577-.062.788-.195a.91.91 0 0 0 .428-.788c-.008-.41-.195-.79-.406-.923s-.502-.198-.81-.195Z"/>
	</g>
</svg>
