<svg xmlns="http://www.w3.org/2000/svg" width="28" height="28" viewBox="0 0 28 28">
	<g fill="none" fill-rule="evenodd">
		<path fill="#035799" stroke="#fff" d="M14.001 5.518c2.348 0 4.473.951 6.01 2.49a8.47 8.47 0 0 1 2.49 6.01 8.47 8.47 0 0 1-2.49 6.01 8.47 8.47 0 0 1-6.01 2.49 8.47 8.47 0 0 1-6.01-2.49 8.47 8.47 0 0 1-2.49-6.01c0-2.347.952-4.472 2.49-6.01A8.47 8.47 0 0 1 14 5.518Z"/>
		<path fill="#fff" d="m17.595 9.271.764 3.757-3.36 1.629v5.26l-1.028.222v-4.952l-.842.402-3.365-3.09 7.83-3.228Zm-7.676 4.652 1.487 1.35-2.125 1.188-.576-1.911z"/>
		<path fill="#fff" d="m17.595 9.271.764 3.757-3.36 1.629v5.26l-1.028.222v-4.952l-.842.402-3.365-3.09 7.83-3.228Zm-7.676 4.652 1.487 1.35-2.125 1.188-.576-1.911z"/>
	</g>
</svg>
