<svg xmlns="http://www.w3.org/2000/svg" width="22" height="22" viewBox="0 0 22 22">
	<g fill="none" fill-rule="evenodd">
		<path fill="#035799" stroke="#fff" d="M11 6.5c1.242 0 2.367.503 3.181 1.317A4.5 4.5 0 0 1 15.5 11a4.5 4.5 0 0 1-1.318 3.182A4.5 4.5 0 0 1 11 15.5a4.5 4.5 0 0 1-3.182-1.318A4.5 4.5 0 0 1 6.5 11a4.5 4.5 0 0 1 1.318-3.182A4.5 4.5 0 0 1 11 6.5Z"/>
		<path fill="#fff" d="m12.861 8.2.445 2.074-1.955.9v2.903l-.598.123v-2.734l-.49.222-1.957-1.706L12.86 8.2Zm-3.853 2.962.868.675-1.24.593-.336-.955z"/>
	</g>
</svg>
