<?xml version="1.0" encoding="UTF-8"?>
<svg width="40px" height="40px" viewBox="0 0 40 40" version="1.1" xmlns="http://www.w3.org/2000/svg" xmlns:xlink="http://www.w3.org/1999/xlink">
    <title>icn/poi/mapsight-icons-svg/charging-station-default</title>
    <g id="icn/poi/charging-station-default" stroke="none" stroke-width="1" fill="none" fill-rule="evenodd">
        <g id="bg/poi-default" transform="translate(7, 7)" fill="#FFFFFF" stroke="#000000">
            <rect id="Rectangle" x="0.5" y="0.5" width="25" height="25" rx="4"></rect>
        </g>
        <g id="car-charging" transform="translate(9, 10.625)" fill="#000000">
            <path d="M20,14 L20,11 L19,11 C19,11.5964825 19,12.5964825 19,14 C19,14.5 18,14.5 18,14 L18,11 L17,11 C17,10.4555738 16.9730369,8.05776973 17,7.5 C17,6.5 18,6 19,6 C19,5.21070761 18.6021013,4.5 18,4.5 C17.5,4.5 16,3.5 16,2 C16,1 16,1 15,1 L15,0 C17,0 17,1 17,2 C17,2.60853601 17.5231575,3.37592792 18,3.5 C18.6753219,3.58213218 20,4 20,6 C21,6 22,6.5 22,7.5 L22,11 L21,11 L21,14 C21,14.5 20,14.5 20,14 Z" id="charge" transform="translate(18.5, 7.1875) scale(-1, 1) rotate(-180) translate(-18.5, -7.1875)"></path>
            <path d="M11.0636546,6.375 C11.885966,6.375 12.345006,6.999485 12.5745329,7.53219448 L12.6206675,7.643893 L14,10.375 C14.4576212,10.4553404 15,10.5507189 15,11.4399008 L15,15.375 L14,15.375 L14,16.375 C14,17.8228016 12,17.8057811 12,16.375 L12,15.375 L3,15.375 L3,16.375 C3,17.8057811 1,17.8228016 1,16.375 L1,15.375 L0,15.375 L0,11.4399008 C0,10.4519209 0.549941516,10.4322193 1,10.375 L2.38438616,7.63082715 C2.59833141,7.07998502 3.06193792,6.375 3.93564375,6.375 L11.0636546,6.375 Z M2.55683788,10.8152235 C2.00441298,10.8152235 1.55682047,11.2629274 1.55682047,11.8152235 C1.55682047,12.3674889 2.00441298,12.8152235 2.55683788,12.8152235 C3.10924537,12.8152235 3.55682047,12.3674889 3.55682047,11.8152235 C3.55682047,11.2629274 3.10924537,10.8152235 2.55683788,10.8152235 Z M12.5757073,10.8152235 C12.0236481,10.8152235 11.5756899,11.2629274 11.5756899,11.8152235 C11.5756899,12.3674889 12.0236481,12.8152235 12.5757073,12.8152235 C13.1281148,12.8152235 13.5756899,12.3674889 13.5756899,11.8152235 C13.5756899,11.2629274 13.1281148,10.8152235 12.5757073,10.8152235 Z M11,7.375 L4,7.375 C3.65960598,7.37824173 3.44421567,7.85723735 3.33691068,8.13229451 L2.5,10.375 L12.5,10.375 L11.7448649,8.21722342 C11.6378505,7.89735592 11.3744835,7.3785659 11,7.375 Z" id="car"></path>
        </g>
    </g>
</svg>