<svg xmlns="http://www.w3.org/2000/svg" width="34" height="34" viewBox="0 0 34 34">
	<g fill="none" fill-rule="evenodd">
		<rect width="24" height="24" x="5" y="5" fill="#FFF" rx="3" />
		<path fill="#000"
			  d="M8.99 27.46v-1.454h1.561v-1.034h1.934v1.034h4.004v-1.034h1.933v1.034h2.566v-3h5.017v4.453H8.99zm2.024-2.927c-1.122 0-2.032-1.222-2.032-2.345l.045-3.45a2.91 2.91 0 0 1 .043-.466l.18-1.016c.035-.2.091-.396.167-.584l1.016-2.514a1.09 1.09 0 0 1 .31-.427c.444-.373 1.578-.835 3.381-.917-.187-.709-.763-.842-1.482-.98h-.917c-.115 0-.208-.5-.208-.615 0-.115.093-.208.208-.208h5.548c.115 0 .208.093.208.208 0 .115-.093.614-.208.614h-.917c-.72.14-1.296.272-1.482.98 1.803.083 2.936.545 3.381.919.137.114.243.26.31.426l1.016 2.514c.076.188.132.384.167.584l.18 1.016c.026.154.041.31.043.466l.045 3.424c0 1.149-.91 2.371-2.032 2.371h-6.97zm7.417-2.077a.918.918 0 1 0-1.836 0 .918.918 0 0 0 1.836 0zm-6.183-4.342a30.2 30.2 0 0 1 2.25-.08c.727 0 1.673.029 2.251.08 0 0 1.107.136 1.14.138.212 0 .384-.195.384-.436a.486.486 0 0 0-.028-.163l-.432-1.437a1.054 1.054 0 0 0-.523-.586c-.489-.237-1.484-.53-2.791-.53s-2.302.293-2.791.53a1.055 1.055 0 0 0-.523.586l-.432 1.437a.488.488 0 0 0-.028.163c0 .24.172.436.417.434l1.106-.136zm1.436-6.124c.382.28.663.27.803.721.14-.452.421-.44.802-.72h-1.605zm1.747 7.466a.918.918 0 1 0-1.836 0 .918.918 0 0 0 1.836 0zm-3 3a.918.918 0 1 0-1.836 0 .918.918 0 0 0 1.836 0zm-5.457-9.864v-1.657l10.03-4.143 9.998 4.143v1.657l-9.998-4.143-10.03 4.143z" />
	</g>
</svg>
