<svg xmlns="http://www.w3.org/2000/svg" width="34" height="34" viewBox="0 0 34 34">
	<g fill="none" fill-rule="evenodd">
		<rect width="24" height="24" x="5" y="5" fill="#FFF" rx="3" />
		<path fill="#000"
			  d="M28.01 20.128v1.251l-.33.13-.352.14a3.19 3.19 0 0 1-2.348 0l-.705-.28a3.19 3.19 0 0 0-2.348 0l-.704.28a3.19 3.19 0 0 1-2.349 0l-.704-.28a3.19 3.19 0 0 0-2.348 0l-.705.28a3.19 3.19 0 0 1-2.348 0l-.705-.28a3.19 3.19 0 0 0-2.348 0l-.704.28a3.19 3.19 0 0 1-2.349 0l-.352-.14-.329-.13v-1.25l.329.13.352.14a3.19 3.19 0 0 0 2.349 0l.704-.28a3.19 3.19 0 0 1 2.348 0l.705.28a3.19 3.19 0 0 0 2.348 0l.705-.28a3.19 3.19 0 0 1 2.348 0l.704.28a3.19 3.19 0 0 0 2.349 0l.704-.28a3.19 3.19 0 0 1 2.348 0l.705.28a3.19 3.19 0 0 0 2.348 0l.352-.14.33-.13zm0 2.19v1.25l-.33.13-.352.14a3.19 3.19 0 0 1-2.348 0l-.705-.28a3.19 3.19 0 0 0-2.348 0l-.704.28a3.19 3.19 0 0 1-2.349 0l-.704-.28a3.19 3.19 0 0 0-2.348 0l-.705.28a3.19 3.19 0 0 1-2.348 0l-.705-.28a3.19 3.19 0 0 0-2.348 0l-.704.28a3.19 3.19 0 0 1-2.349 0l-.352-.14-.329-.13v-1.25l.329.13.352.139a3.19 3.19 0 0 0 2.349 0l.704-.28a3.19 3.19 0 0 1 2.348 0l.705.28a3.19 3.19 0 0 0 2.348 0l.705-.28a3.189 3.189 0 0 1 2.348 0l.704.28a3.19 3.19 0 0 0 2.349 0l.704-.28a3.189 3.189 0 0 1 2.348 0l.705.28a3.19 3.19 0 0 0 2.348 0l.352-.14.33-.13zm-1.041-3.204a1.137 1.137 0 0 1-.44.356c-.45 0-1.177-.076-1.55-.223l-.704-.28a3.19 3.19 0 0 0-2.348 0l-.704.28a3.19 3.19 0 0 1-2.349 0l-.704-.28a3.19 3.19 0 0 0-2.348 0l-.705.28a3.19 3.19 0 0 1-2.348 0l-.705-.28a3.19 3.19 0 0 0-2.348 0l-.724.307a5.788 5.788 0 0 0-1.138-1.947l-.573-.57c-.36-.408-1.245-1.732-1.245-1.732h4.132l1.302-1.994h2.794l1.121-2.012h3.945l-1.12 2.012h4.657l-1.299 2.002h4.767l-.84.988h2.521l-.007.36c0 1.123-.363 1.813-1.04 2.733zM15.746 10.01l.55-1.015h3.945l-.55 1.015h-3.945z" />
	</g>
</svg>
