<svg xmlns="http://www.w3.org/2000/svg" width="28" height="28" viewBox="0 0 28 28">
	<g fill="none" fill-rule="evenodd">
		<path stroke="#FFF"
			  d="m15.295 6.538 7.86 13.72a1.5 1.5 0 0 1-1.302 2.245H6.141a1.5 1.5 0 0 1-1.302-2.245l7.853-13.72a1.5 1.5 0 0 1 2.603 0z" />
		<path fill="#FFF" stroke="#B80707" stroke-linejoin="square" stroke-width="1.7"
			  d="M14.124 7.208a.15.15 0 0 0-.26 0L6.01 20.928a.15.15 0 0 0 .13.225h15.722a.15.15 0 0 0 .13-.225l-7.869-13.72z" />
		<path stroke="#FFF"
			  d="m15.295 6.536 7.87 13.72a1.5 1.5 0 0 1-1.302 2.247H6.141a1.5 1.5 0 0 1-1.302-2.245l7.853-13.72a1.5 1.5 0 0 1 2.603-.002z" />
		<path fill="#000"
			  d="m12.05 18.87-1.3.15v-3.01l1.3-1.166v-1.733l1.302-.151v2.733l-1.301 1.166v2.01zm3.915 0v-2.011l-1.342-1.166V12.96l1.301.15v1.734l1.342 1.166v3.01l-1.301-.15z" />
	</g>
</svg>
