<svg xmlns="http://www.w3.org/2000/svg" width="22" height="22" viewBox="0 0 22 22">
	<g fill="none" fill-rule="evenodd">
		<path stroke="#FFF"
			  d="m12.392 5.842 5.712 10.22a1 1 0 0 1-.873 1.488H5.811a1 1 0 0 1-.872-1.488l5.707-10.22a1 1 0 0 1 1.746 0z" />
		<path fill="#FFF" stroke="#B80707" stroke-linejoin="square" stroke-width="1.5"
			  d="M11.52 6.843 6.237 16.3h10.574l-5.293-9.457z" />
		<path stroke="#FFF"
			  d="m12.392 5.842 5.719 10.22a1 1 0 0 1-.873 1.488H5.812a1 1 0 0 1-.873-1.487l5.707-10.22a1 1 0 0 1 1.746 0z" />
		<path fill="#FFF" stroke="#FFF"
			  d="m10.134 14.908-1.06.089v-2.001l1.06-.362v-1.64h.83v2.277l-.83.32v1.317zm2.71-3.914v1.64l1.082.32v2.043h-.993v-1.36l-.894-.366v-2.277h.806z" />
		<path fill="#000"
			  d="m10.134 14.908-1.06.089v-2.001l1.06-.362v-1.64h.83v2.277l-.83.32v1.317zm2.71-3.914v1.64l1.082.32v2.043h-.993v-1.36l-.894-.366v-2.277h.806z" />
	</g>
</svg>
