<svg xmlns="http://www.w3.org/2000/svg" width="28" height="28" viewBox="0 0 28 28">
	<title>mapsight-icons-svg/icn/flag/flag-finish-xsmall</title>
	<g fill="none" fill-rule="evenodd" transform="translate(2.8 2.1)">
		<ellipse cx="9.8" cy="21" stroke="#FFF" stroke-linejoin="round" stroke-width="4" rx="9.8" ry="3.5" />
		<ellipse cx="9.8" cy="21" stroke="#000" stroke-linejoin="round" stroke-width="1.5" rx="9.8" ry="3.5" />
		<path fill="#FFF" fill-rule="nonzero" stroke="#FFF" stroke-linejoin="round" stroke-width="4" d="M9.8 9.8h12.6V0H9.8v21z" />
		<path stroke="#000" stroke-linejoin="round" stroke-width="2" d="M9.8 9.8h12.6V0H9.8v21z" />
		<path fill="#000" fill-rule="nonzero"
			  d="M10.5.7h2.8v2.8h-2.8V.7zm0 5.6h2.8v2.8h-2.8V6.3zM16.1.7h2.8v2.8h-2.8V.7zm-2.8 2.8h2.8v2.8h-2.8V3.5zm5.6 0h2.8v2.8h-2.8V3.5zm-2.8 2.8h2.8v2.8h-2.8V6.3z" />
	</g>
</svg>
