<svg xmlns="http://www.w3.org/2000/svg" width="40" height="40" viewBox="0 0 40 40">
	<title>mapsight-icons-svg/icn/flag/flag-finish-default</title>
	<g fill="none" fill-rule="evenodd" transform="translate(4 3)">
		<ellipse cx="14" cy="30" stroke="#FFF" stroke-linejoin="round" stroke-width="4" rx="14" ry="5" />
		<ellipse cx="14" cy="30" stroke="#000" stroke-linejoin="round" stroke-width="1.5" rx="14" ry="5" />
		<path fill="#FFF" fill-rule="nonzero" stroke="#FFF" stroke-linejoin="round" stroke-width="4" d="M14 14h18V0H14v30z" />
		<path stroke="#000" stroke-linejoin="round" stroke-width="2" d="M14 14h18V0H14v30z" />
		<path fill="#000" fill-rule="nonzero"
			  d="M15 1h4v4h-4V1zm0 8h4v4h-4V9zm8-8h4v4h-4V1zm-4 4h4v4h-4V5zm8 0h4v4h-4V5zm-4 4h4v4h-4V9z" />
	</g>
</svg>
