<svg xmlns="http://www.w3.org/2000/svg" width="40" height="40" viewBox="0 0 40 40">
	<g fill="none" fill-rule="evenodd">
		<rect width="25" height="25" x="7.5" y="7.5" fill="#FFF" stroke="#000" rx="4" />
		<path fill="#000"
			  d="m20.215 20.372-1.277-1.203 4.292-4.136 1.277 1.202-4.292 4.137zm5.464 7.458h2.694c.482 0 .789.483.789.937 0 .454-.307 1.08-.789 1.08H11.957c-.482 0-.957-.473-.957-.927 0-.454.475-1.094.957-1.094l2.156.004-.037-2.33h-.921c-.483 0-.88-.374-.88-.828 0-.454.397-.828.88-.828h3.59c.482 0 .88.374.88.828 0 .454-.398.828-.88.828h-.673l-.008 2.358 5.663-.004a5.428 5.428 0 0 0 3.83-2.39c1.45-2.317.688-4.766-1.794-6.14l-2.93 2.744a.878.878 0 0 1-1.231 0l-.639-.601-.8.802a.888.888 0 0 1-1.231 0 .77.77 0 0 1 0-1.16l.8-.8-.638-.602a.77.77 0 0 1 0-1.16l5.523-5.25a.887.887 0 0 1 1.23 0l2.508 2.36a.77.77 0 0 1 0 1.16l-1.328 1.329c3.011 1.907 3.887 5.164 2.027 8.15a6.991 6.991 0 0 1-1.375 1.534zm-1.67-15.416L25.425 11l3.35 3.314-1.415 1.414-3.35-3.314z" />
	</g>
</svg>
