<svg xmlns="http://www.w3.org/2000/svg" width="34" height="34" viewBox="0 0 34 34">
	<g fill="none" fill-rule="evenodd">
		<path stroke="#FFF"
			  d="m18.293 7.198 11.13 19.057a1.5 1.5 0 0 1-1.296 2.257H5.807a1.5 1.5 0 0 1-1.293-2.26l11.19-19.057a1.5 1.5 0 0 1 2.589.003z" />
		<path fill="#FFF" stroke="#B80707" stroke-linejoin="square" stroke-width="1.8"
			  d="M17.079 8.606a.1.1 0 0 0-.173 0L6.289 26.846a.1.1 0 0 0 .087.15H27.42a.1.1 0 0 0 .087-.15L17.079 8.607z" />
		<path stroke="#FFF"
			  d="m18.294 7.912 10.428 18.24a1.5 1.5 0 0 1-1.302 2.244H6.376a1.5 1.5 0 0 1-1.297-2.254l10.617-18.24a1.5 1.5 0 0 1 2.598.01z" />
		<path fill="#000"
			  d="m15.374 25.194-2.057-2.047.003-1.48 1.44 1.452-.001-6.071 1.237.002v6.062l1.432-1.455-.001 1.493-2.053 2.044zm3.272-8.298 2.053 2.043.002 1.494-1.433-1.455v6.062l-1.237.002.002-6.071-1.44 1.452-.003-1.48 2.056-2.047z" />
	</g>
</svg>
