<svg xmlns="http://www.w3.org/2000/svg" width="28" height="28" viewBox="0 0 28 28">
	<g fill="none" fill-rule="evenodd">
		<path stroke="#FFF"
			  d="m15.295 6.538 7.86 13.72a1.5 1.5 0 0 1-1.302 2.245H6.141a1.5 1.5 0 0 1-1.302-2.245l7.853-13.72a1.5 1.5 0 0 1 2.603 0z" />
		<path fill="#FFF" stroke="#B80707" stroke-linejoin="square" stroke-width="1.7"
			  d="M14.124 7.208a.15.15 0 0 0-.26 0L6.01 20.928a.15.15 0 0 0 .13.225h15.722a.15.15 0 0 0 .13-.225l-7.869-13.72z" />
		<path stroke="#FFF"
			  d="m15.295 6.536 7.87 13.72a1.5 1.5 0 0 1-1.302 2.247H6.141a1.5 1.5 0 0 1-1.302-2.245l7.853-13.72a1.5 1.5 0 0 1 2.603-.002z" />
		<path fill="#000"
			  d="m12.468 19.453-1.945-2-.165-.984 1.609.956-.003-3.628.962.009v3.619l1.651-.956-.22.994-1.89 1.99zm2.982-5.981 1.726 1.937.464.761-1.686-.722.002 3.53h-.995v-3.54l-1.7.732.493-.561 1.696-2.137z" />
	</g>
</svg>
