<svg xmlns="http://www.w3.org/2000/svg" width="40" height="40" viewBox="0 0 40 40">
	<g fill="none" fill-rule="evenodd">
		<path fill="#fff" stroke="#000" d="M21.714 9.467a2 2 0 0 0-3.432-.002L6.747 28.715A2.5 2.5 0 0 0 8.892 32.5h22.186a2.5 2.5 0 0 0 2.146-3.783z"/>
		<path fill="#fff" stroke="#b80707" stroke-linejoin="square" stroke-width="1.8" d="M20.079 11.606a.1.1 0 0 0-.173 0L9.289 29.846a.1.1 0 0 0 .087.15H30.42a.1.1 0 0 0 .087-.15z"/>
		<path stroke="#fff" d="m21.294 10.912 10.428 18.24a1.5 1.5 0 0 1-1.302 2.244H9.376a1.5 1.5 0 0 1-1.297-2.254l10.617-18.24a1.5 1.5 0 0 1 2.598.01z"/>
		<path fill="#000" d="m17.758 28.074-2.057-2.047.003-1.481 1.44 1.453-.001-6.002L18.38 20v5.993l1.432-1.455-.001 1.493-2.053 2.044zm3.895-8.222 2.053 2.044.002 1.493-1.433-1.455v5.993l-1.237.002.002-6.002-1.44 1.453-.003-1.481z"/>
	</g>
</svg>
