<svg xmlns="http://www.w3.org/2000/svg" width="28" height="28" viewBox="0 0 28 28">
	<g fill="none" fill-rule="evenodd">
		<circle cx="14" cy="14" r="9" fill="#fff"/>
		<circle cx="14" cy="14" r="6.9" fill="#fff" stroke="#b80707" stroke-linejoin="square" stroke-width="2.2"/>
		<circle cx="14" cy="14" r="8.5" stroke="#fff"/>
		<path fill="#000" d="M13.953 8.178c1.973 0 1.966.752 2.884 1.31-.993 1.3-1.894 1.186-2.833 2.69-1.108-1.713-2.085-1.6-2.947-2.685.921-.561.94-1.315 2.896-1.315m0 12c-1.957 0-1.975-.755-2.896-1.316.862-1.084 1.839-.972 2.947-2.684.94 1.503 1.84 1.39 2.833 2.69-.918.558-.911 1.31-2.884 1.31"/>
	</g>
</svg>
