<svg xmlns="http://www.w3.org/2000/svg" width="22" height="22" viewBox="0 0 22 22">
	<g fill="none" fill-rule="evenodd">
		<circle cx="11" cy="11" r="6" fill="#fff"/>
		<circle cx="11" cy="11" r="4.25" fill="#fff" stroke="#b80707" stroke-linejoin="square" stroke-width="1.5"/>
		<circle cx="11" cy="11" r="5.5" stroke="#fff"/>
		<path fill="#000" d="M10.965 14.42c-1.046 0-1.736-.587-2.229-.84.46-.486 1.66-1.031 2.253-1.8.503.675 1.722 1.219 2.254 1.803-.491.251-1.223.838-2.278.838zM11 7.588c1.055 0 1.787.586 2.278.837-.531.585-1.751 1.129-2.253 1.804-.593-.77-1.793-1.314-2.254-1.801.493-.253 1.183-.84 2.229-.84"/>
	</g>
</svg>
