<svg xmlns="http://www.w3.org/2000/svg" width="40" height="40" viewBox="0 0 40 40">
	<g fill="none" fill-rule="evenodd">
		<circle cx="20" cy="20" r="11.5" fill="#FFF" stroke="#000" />
		<circle cx="20" cy="20" r="8.75" fill="#FFF" stroke="#B80707" stroke-linejoin="square" stroke-width="2.5" />
		<circle cx="20" cy="20" r="10.5" stroke="#FFF" />
		<path fill="#000"
			  d="M19.95 12.654c2.395 0 2.882.705 3.997 1.274-1.207 1.327-2.794 2.245-3.935 3.78-1.346-1.748-3.016-2.674-4.062-3.78 1.119-.573 1.624-1.274 4-1.274zm0 14.762c-2.376 0-2.881-.7-4-1.273 1.046-1.106 2.716-2.032 4.062-3.78 1.14 1.534 2.728 2.452 3.935 3.78-1.115.57-1.602 1.273-3.997 1.273z" />
	</g>
</svg>
