<svg xmlns="http://www.w3.org/2000/svg" width="40" height="40" viewBox="0 0 40 40">
	<g fill="none" fill-rule="evenodd">
		<rect width="25" height="25" x="7.5" y="7.5" fill="#FFF" stroke="#000" rx="4" />
		<path fill="#010101"
			  d="M18.002 25.22v-5.85H16.77a.776.776 0 0 1-.769-.782c0-.43.345-.78.77-.78h4.559a.68.68 0 0 1 .677.687v6.724h1.225c.424 0 .769.35.769.781a.776.776 0 0 1-.77.782h-6.46A.776.776 0 0 1 16 26c0-.43.345-.78.77-.78h1.232zM20 16.53c-1.233 0-2.23-1.014-2.23-2.265 0-1.252.997-2.266 2.23-2.266 1.232 0 2.23 1.014 2.23 2.266 0 1.251-.998 2.265-2.23 2.265z" />
	</g>
</svg>
