<svg xmlns="http://www.w3.org/2000/svg" width="34" height="34" viewBox="0 0 34 34">
	<g fill="none" fill-rule="evenodd">
		<rect width="24" height="24" x="5" y="5" fill="#FFF" rx="3" />
		<path fill="#010101"
			  d="M15.002 22.22v-5.85H13.77a.776.776 0 0 1-.769-.782c0-.43.345-.78.77-.78h4.559a.68.68 0 0 1 .677.687v6.724h1.225c.424 0 .769.35.769.781a.776.776 0 0 1-.77.782h-6.46A.776.776 0 0 1 13 23c0-.43.345-.78.77-.78h1.232zM17 13.53c-1.233 0-2.23-1.014-2.23-2.265C14.77 10.014 15.766 9 17 9c1.232 0 2.23 1.014 2.23 2.266 0 1.251-.998 2.265-2.23 2.265z" />
	</g>
</svg>
