<svg xmlns="http://www.w3.org/2000/svg" width="40" height="40" viewBox="0 0 40 40">
	<g fill="none" fill-rule="evenodd">
		<rect width="25" height="25" x="7.5" y="7.5" fill="#FFF" stroke="#000" rx="4" />
		<path fill="#000"
			  d="M17.979 19.056v7.869c0 .308-.106.573-.316.794-.21.221-.461.332-.754.332s-.33-.11-.54-.332a1.114 1.114 0 0 1-.315-.794v-3.862h-1.01v3.862c0 .308.08.573-.13.794-.21.221-.462.332-.755.332s-.544-.11-.754-.332a1.114 1.114 0 0 1-.315-.794v-7.869l-2.789-3.35a.957.957 0 0 1-.267-.683c0-.268.09-.496.267-.684.179-.188.395.131.65.131.254 0 .47.094.649.282l2.177 2.293h3.514l2.177-2.293a.862.862 0 0 1 .65-.282c.254 0 .47.094.649.282a.957.957 0 0 1 .267.684.959.959 0 0 1-.267.684l-2.788 2.936zm9.017 3.655v6.296a.921.921 0 0 1-.26.657.83.83 0 0 1-.625.275.83.83 0 0 1-.624-.275.921.921 0 0 1-.26-.657V25.81h-1.435v3.196a.921.921 0 0 1-.26.657.83.83 0 0 1-.624.275.83.83 0 0 1-.625-.275.921.921 0 0 1-.26-.657V22.71l-2.308-2.43a.792.792 0 0 1-.22-.566c0-.222.073-.41.22-.566a.713.713 0 0 1 .538-.233c.21 0 .39.078.537.233l1.802 1.897h3.835l1.802-1.897a.713.713 0 0 1 .537-.233c.21 0 .39.078.538.233a.792.792 0 0 1 .22.566c0 .222-.073.41-.22.566l-2.308 2.43zm-2.502-2.693a2 2 0 1 1 0-4 2 2 0 0 1 0 4zm-8.96-4.69a2.229 2.229 0 1 1 0-4.458 2.229 2.229 0 0 1 0 4.457z" />
	</g>
</svg>
