<svg xmlns="http://www.w3.org/2000/svg" width="34" height="34" viewBox="0 0 34 34">
	<g fill="none" fill-rule="evenodd">
		<rect width="24" height="24" x="5" y="5" fill="#FFF" rx="3" />
		<path fill="#000"
			  d="M14.948 16.008v7.868c0 .308-.105.573-.315.794-.21.222-.461.332-.754.332s-.33-.11-.54-.332a1.114 1.114 0 0 1-.315-.794v-3.862h-1.01v3.862c0 .308.08.573-.13.794-.21.222-.462.332-.755.332s-.544-.11-.754-.332a1.114 1.114 0 0 1-.315-.794v-7.868l-2.789-3.35a.957.957 0 0 1-.267-.684c0-.268.09-.496.267-.684.179-.188.395.131.65.131.254 0 .47.094.649.282l2.177 2.293h3.514l2.177-2.293a.862.862 0 0 1 .65-.282c.254 0 .47.094.649.282a.957.957 0 0 1 .267.684c0 .268-.09.496-.267.684l-2.789 2.937zm9.045 3.66v6.297a.921.921 0 0 1-.26.657.83.83 0 0 1-.625.275.83.83 0 0 1-.624-.275.921.921 0 0 1-.26-.657v-3.196h-1.435v3.196a.921.921 0 0 1-.26.657.83.83 0 0 1-.625.275.83.83 0 0 1-.624-.275.921.921 0 0 1-.26-.657v-6.296l-2.308-2.43a.792.792 0 0 1-.221-.566c0-.222.074-.41.221-.566a.713.713 0 0 1 .537-.233c.211 0 .39.077.538.233l1.801 1.897h3.836l1.802-1.897a.713.713 0 0 1 .537-.233c.21 0 .39.077.537.233a.792.792 0 0 1 .221.566c0 .222-.073.41-.22.566l-2.308 2.43zm-2.502-2.693a2 2 0 1 1 0-4 2 2 0 0 1 0 4zm-8.987-4.696a2.229 2.229 0 1 1 0-4.458 2.229 2.229 0 0 1 0 4.458z" />
	</g>
</svg>
