<svg xmlns="http://www.w3.org/2000/svg" width="28" height="28" viewBox="0 0 28 28">
	<g fill="none" fill-rule="evenodd">
		<circle cx="14" cy="14" r="9" fill="#FFF" />
		<circle cx="14" cy="14" r="6.9" fill="#FFF" stroke="#B80707" stroke-linejoin="square" stroke-width="2.2" />
		<circle cx="14" cy="14" r="8.5" stroke="#FFF" />
		<path fill="#000"
			  d="M17.967 11.029v3.31h-4.956v-3.31h4.956zm.16 3.932v.815l-.17.194h-.528l-.352-1.01h1.05zm-2.107 0-.293.815v.194h-3.438v-.556l-.587-.648h-.411l-.646.648v.556h-.694l.01-1.824s.361-1.05.684-1.332c.114-.1 1.35-.13 1.35-.13h.294v2.277h3.731zm-4.559.008c.389 0 .704.847.704 1.27 0 .422-.315.765-.704.765-.388 0-.703-.343-.703-.766 0-.422.315-1.269.703-1.269zm5.102 0c.388 0 .703.847.703 1.27 0 .422-.315.765-.703.765-.389 0-.703-.343-.703-.766 0-.422.314-1.269.703-1.269z" />
	</g>
</svg>
