<svg xmlns="http://www.w3.org/2000/svg" width="34" height="34" viewBox="0 0 34 34">
	<g fill="none" fill-rule="evenodd">
		<circle cx="17" cy="17" r="11" fill="#fff"/>
		<circle cx="17" cy="17" r="8.75" fill="#fff" stroke="#b80707" stroke-linejoin="square" stroke-width="2.5"/>
		<circle cx="17" cy="17" r="10.5" stroke="#fff"/>
		<path fill="#000" d="M21.987 18.003v.902l-.722.08h-.652l-.478-.982zm-3.157 0-.319.742v.24H14.47v-.4l-.694-.612h-.507l-.828.612v.32h-.363l.031-1.812s.325-1.492.725-1.84c.14-.122 1.666-.16 1.666-.16l.475-.005-.074 2.91 3.93.005zm-5.344.21c.48 0 .839.242.839.772s-.359 1.148-.839 1.148-.9-.618-.9-1.148.42-.772.9-.772m5.997-.21c.48 0 .912.452.912.982s-.358 1.148-.838 1.148-.9-.618-.9-1.148.345-.982.826-.982m2.504-3.97v3.244h-6.206l-.072-3.243h6.278z"/>
	</g>
</svg>
