<svg xmlns="http://www.w3.org/2000/svg" width="28" height="28" viewBox="0 0 28 28">
	<g fill="none" fill-rule="evenodd">
		<path stroke="#fff" d="m15.295 6.538 7.86 13.72a1.5 1.5 0 0 1-1.302 2.245H6.141a1.5 1.5 0 0 1-1.302-2.245l7.853-13.72a1.5 1.5 0 0 1 2.603 0z"/>
		<path fill="#fff" stroke="#b80707" stroke-linejoin="square" stroke-width="1.7" d="M14.124 7.208a.15.15 0 0 0-.26 0L6.01 20.928a.15.15 0 0 0 .13.225h15.722a.15.15 0 0 0 .13-.225l-7.869-13.72z"/>
		<path stroke="#fff" d="m15.295 6.536 7.87 13.72a1.5 1.5 0 0 1-1.302 2.247H6.141a1.5 1.5 0 0 1-1.302-2.245l7.853-13.72a1.5 1.5 0 0 1 2.603-.002z"/>
		<path fill="#000" d="M13.008 13.522s-.483-1.776.967-1.776 1.009 1.776 1.009 1.776l-.227 2.035c0 .293-.393.421-.728.421s-.794-.128-.794-.42zm.023 3.51h1.938v1.905H13.03v-1.906z"/>
	</g>
</svg>
