<svg xmlns="http://www.w3.org/2000/svg" width="40" height="40" viewBox="0 0 40 40">
	<g fill="none" fill-rule="evenodd">
		<path fill="#FFF" stroke="#000"
			  d="M21.714 9.467a2 2 0 0 0-3.432-.002L6.747 28.715A2.5 2.5 0 0 0 8.892 32.5h22.186a2.5 2.5 0 0 0 2.146-3.783l-11.51-19.25z" />
		<path fill="#FFF" stroke="#B80707" stroke-linejoin="square" stroke-width="1.8"
			  d="M20.079 11.606a.1.1 0 0 0-.173 0L9.289 29.846a.1.1 0 0 0 .087.15H30.42a.1.1 0 0 0 .087-.15l-10.428-18.24z" />
		<path stroke="#FFF"
			  d="m21.294 10.912 10.428 18.24a1.5 1.5 0 0 1-1.302 2.244H9.376a1.5 1.5 0 0 1-1.297-2.254l10.617-18.24a1.5 1.5 0 0 1 2.598.01z" />
		<path fill="#000"
			  d="M18.852 19.04s-.29-1.134 1.16-1.134c1.449 0 1.16 1.134 1.16 1.134l-.321 5.517c0 .293-.487.609-.822.609-.335 0-.888-.316-.888-.609l-.29-5.517zm.028 7.937c0-.651.446-1.179 1.112-1.179.667 0 1.112.528 1.112 1.179 0 .65-.445 1.18-1.112 1.18-.666 0-1.112-.53-1.112-1.18z" />
	</g>
</svg>
