<svg xmlns="http://www.w3.org/2000/svg" width="34" height="34" viewBox="0 0 34 34">
	<g fill="none" fill-rule="evenodd">
		<path stroke="#FFF"
			  d="m18.293 7.198 11.13 19.057a1.5 1.5 0 0 1-1.296 2.257H5.807a1.5 1.5 0 0 1-1.293-2.26l11.19-19.057a1.5 1.5 0 0 1 2.589.003z" />
		<path fill="#FFF" stroke="#B80707" stroke-linejoin="square" stroke-width="1.8"
			  d="M17.079 8.606a.1.1 0 0 0-.173 0L6.289 26.846a.1.1 0 0 0 .087.15H27.42a.1.1 0 0 0 .087-.15L17.079 8.607z" />
		<path stroke="#FFF"
			  d="m18.294 7.912 10.428 18.24a1.5 1.5 0 0 1-1.302 2.244H6.376a1.5 1.5 0 0 1-1.297-2.254l10.617-18.24a1.5 1.5 0 0 1 2.598.01z" />
		<path fill="#000"
			  d="M15.851 16.04s-.29-1.134 1.16-1.134 1.16 1.134 1.16 1.134l-.32 5.517c0 .293-.487.609-.822.609-.335 0-.888-.316-.888-.609l-.29-5.517zm.03 7.937c0-.651.445-1.179 1.111-1.179.667 0 1.112.528 1.112 1.179 0 .65-.445 1.18-1.112 1.18-.666 0-1.112-.53-1.112-1.18z" />
	</g>
</svg>
