<svg xmlns="http://www.w3.org/2000/svg" width="34" height="34" viewBox="0 0 34 34">
	<g fill="none" fill-rule="evenodd">
		<rect width="23" height="23" x="5.5" y="5.5" fill="#035799" stroke="#fff" rx="3"/>
		<path fill="#fff" d="M10.5 21.028a2.5 2.5 0 1 1 0 5 2.5 2.5 0 0 1 0-5m12 0a2.5 2.5 0 1 1 0 5 2.5 2.5 0 0 1 0-5m-12 1.25a1.25 1.25 0 1 0 0 2.5 1.25 1.25 0 0 0 0-2.5m12 0a1.25 1.25 0 1 0 0 2.5 1.25 1.25 0 0 0 0-2.5m-7.44-7.342c.599-.367 1.1-.32 1.553-.077l3.194 3.1c.043-.341.06-.673.087-.97.213.086.437.16.663.229l.272.081.27.08c1.256.38 2.363.83 1.82 2.785-2.073.023-4.446.408-4.446 3.287-.923 1.176-2.343.474-4.47.474.624-4.46-3.111-3.899-4.829-3.846-.418-.472-.321-.862-.112-1.04l2.866-.012c.001-.349.644-.795.95-1.283l1.784 1.294 2.67-.01c.475.009.603 1.103.676 1.46.773-.288 1.211-.76 1.468-1.295l-2.71-2.75-1.847 2.584-1.922-1.447c.688-.882 1.552-2.177 2.063-2.644m1.562-3.098c1.025.153 1.45.046 1.576 1.408l-1.157-.194-.167.999 1.134.155v.912l-.675-.092c-.656-.594-1.375-.956-2.335-.426-.296-.42-.191-.989-.079-1.47.206-.982 1.06-1.246 1.703-1.292m7.9-3.734c.456.118.938.335 1.211.654.272.317.276.774.283 1.371-.004.656-.195.948-.633 1.337-.438.388-.818.53-1.54.605h-1.291v2.92h-1.555V8.003h2.164c.554-.003.908-.016 1.362.102Zm-1.17.893-.8.002v2.098l.8.001c.308.004.577-.062.788-.195a.91.91 0 0 0 .428-.788c-.008-.41-.195-.79-.406-.923s-.502-.198-.81-.195"/>
	</g>
</svg>
