<svg xmlns="http://www.w3.org/2000/svg" width="28" height="28" viewBox="0 0 28 28">
	<g fill="none" fill-rule="evenodd">
		<path fill="#035799" stroke="#fff" d="M14.001 5.518c2.348 0 4.473.951 6.01 2.49a8.47 8.47 0 0 1 2.49 6.01 8.47 8.47 0 0 1-2.49 6.01 8.47 8.47 0 0 1-6.01 2.49 8.47 8.47 0 0 1-6.01-2.49 8.47 8.47 0 0 1-2.49-6.01c0-2.347.952-4.472 2.49-6.01A8.47 8.47 0 0 1 14 5.518Z"/>
		<path fill="#f8f8f8" d="M15.09 10.13c.544.147 1.122.42 1.448.82.326.398.48 1.05.488 1.8-.004.823-.308 1.425-.832 1.913s-1.016.666-1.88.76h-2.602v3.623H10v-9.045h3.682c.279.002 1.015.021 1.407.128Zm-1.264 1.12h-.895l-.147.001h-.561l-.121.001h-.39V14.2l2.162.003c.37.004.803-.078 1.057-.246.252-.167.501-.787.512-1.303-.01-.515-.234-.99-.487-1.158-.239-.158-1.322-.237-1.13-.245Z"/>
	</g>
</svg>
