<svg xmlns="http://www.w3.org/2000/svg" width="28" height="28" viewBox="0 0 28 28">
	<title>mapsight-icons-svg/icn/parken/parkhaus-small</title>
	<g fill="none" fill-rule="evenodd">
		<path fill="#035799" stroke="#FFF"
			  d="M14.001 5.518c2.348 0 4.473.951 6.01 2.49a8.473 8.473 0 0 1 2.49 6.01 8.473 8.473 0 0 1-2.49 6.01 8.473 8.473 0 0 1-6.01 2.49 8.473 8.473 0 0 1-6.01-2.49 8.473 8.473 0 0 1-2.49-6.01c0-2.347.952-4.472 2.49-6.01A8.473 8.473 0 0 1 14 5.518Z" />
		<path fill="#F8F8F8"
			  d="M15.276 11.77c.418.12.862.342 1.113.667.25.324.41.86.415 1.47-.003.67-.236 1.16-.639 1.557-.402.396-.78.542-1.443.618h-1.217V19h-1.314v-7.329h1.99c.508-.003.678-.022 1.095.099Zm-.892.917-.879.003v2.397l.879.001c.284.004.617-.063.811-.2.194-.136.386-.64.394-1.06-.008-.418-.18-.805-.374-.941-.194-.136-.547-.203-.831-.2ZM13.99 8 20 10.684v1.111l-6.009-2.684L8 11.795v-1.111L13.991 8Z" />
	</g>
</svg>
