<svg xmlns="http://www.w3.org/2000/svg" width="22" height="22" viewBox="0 0 22 22">
	<g fill="none" fill-rule="evenodd">
		<path fill="#035799" stroke="#fff" d="M11 6.5c1.242 0 2.367.503 3.181 1.317A4.5 4.5 0 0 1 15.5 11a4.5 4.5 0 0 1-1.318 3.182A4.5 4.5 0 0 1 11 15.5a4.5 4.5 0 0 1-3.182-1.318A4.5 4.5 0 0 1 6.5 11a4.5 4.5 0 0 1 1.318-3.182A4.5 4.5 0 0 1 11 6.5Z"/>
		<path fill="#fff" d="M11.466 9c1.201.16 1.5 2.018-.032 2.36h-.74v1.633H10V9Zm-.09.592h-.683v1.169h.732c.658-.31.57-.935-.05-1.169Z"/>
	</g>
</svg>
