<svg xmlns="http://www.w3.org/2000/svg" width="34" height="34" viewBox="0 0 34 34">
	<title>mapsight-icons-svg/icn/parken/parkhaus-plain</title>
	<g fill="none" fill-rule="evenodd">
		<rect width="23" height="23" x="5.5" y="5.5" fill="#035799" stroke="#FFF" rx="3" />
		<path fill="#F8F8F8"
			  d="M18.707 14.11c.638.166 1.316.471 1.698.918.382.445.625 1.183.635 2.02-.005.922-.362 1.595-.976 2.14-.614.546-1.191.745-2.204.85h-1.857v4.01h-2.007V13.977h3.038c.776-.005 1.036-.03 1.673.135Zm-1.363 1.261-1.341.004v3.295l1.341.002c.433.005.942-.087 1.24-.274.296-.187.587-.88.6-1.457-.013-.576-.275-1.107-.57-1.295-.298-.187-.837-.278-1.27-.275Zm-.359-6.441 9.01 3.688v1.528l-9.01-3.69L8 14.147v-1.528l8.985-3.688Z" />
	</g>
</svg>
