<svg xmlns="http://www.w3.org/2000/svg" width="40" height="40" viewBox="0 0 40 40">
	<title>mapsight-icons-svg/icn/parken/parkhaus-default</title>
	<g fill="none" fill-rule="evenodd">
		<g stroke-linejoin="square">
			<rect width="24" height="24" x="8" y="8" fill="#035799" stroke="#FFF" stroke-width="2" rx="4" />
			<rect width="25" height="25" x="7.5" y="7.5" stroke="#000" rx="4" />
		</g>
		<path fill="#F8F8F8"
			  d="M21.707 17.11c.638.166 1.316.471 1.698.918.382.445.625 1.183.635 2.02-.005.922-.362 1.595-.976 2.14-.614.546-1.191.745-2.204.85h-1.857v4.01h-2.007V16.977h3.038c.776-.005 1.036-.03 1.673.135Zm-1.363 1.261-1.341.004v3.295l1.341.002c.433.005.942-.087 1.24-.274.296-.187.587-.88.6-1.457-.013-.576-.275-1.107-.57-1.295-.298-.187-.837-.278-1.27-.275Zm-.359-6.441 9.01 3.688v1.528l-9.01-3.69L11 17.147v-1.528l8.985-3.688Z" />
	</g>
</svg>
