<svg xmlns="http://www.w3.org/2000/svg" width="40" height="40" viewBox="0 0 40 40">
	<g fill="none" fill-rule="evenodd">
		<rect width="25" height="25" x="7.5" y="7.5" fill="#FFF" stroke="#000" rx="4" />
		<path fill="#000"
			  d="M26.026 27.497H21V29h-2v-1.503h-1v-1.503h11.026v1.503h-1V29h-2v-1.503zm-6.34-12.438A4.001 4.001 0 1 1 17 22.465V29h-2v-6.337a3.5 3.5 0 0 1-3.745-5.849 3.5 3.5 0 0 1 3.03-4.808C14.767 10.82 15.802 10 17.001 10c1.657 0 3 1.567 3 3.5 0 .56-.113 1.09-.313 1.559z" />
	</g>
</svg>
