<svg xmlns="http://www.w3.org/2000/svg" width="34" height="34" viewBox="0 0 34 34">
	<g fill="none" fill-rule="evenodd">
		<rect width="23" height="23" x="5.5" y="5.5" fill="#035799" stroke="#fff" rx="3"/>
		<path fill="#f8f8f8" d="M18.586 10.28q1.425.37 2.28 1.367c.57.663.952 1.533.966 2.781-.007 1.372-.558 2.063-1.473 2.876s-1.526 1.11-3.035 1.267H14.82v5.42h-2.834V9.974h4.106c1.158-.007 1.544.06 2.494.306m-2.03 1.898-1.736.006v4.223l1.735.004c.646.007 1.28-.13 1.722-.41.441-.278.627-.936.645-1.796-.018-.858-.159-1.338-.6-1.617-.443-.28-1.121-.415-1.767-.41Z"/>
	</g>
</svg>
