<svg xmlns="http://www.w3.org/2000/svg" width="28" height="28" viewBox="0 0 28 28">
	<title>mapsight-icons-svg/icn/parken/pundr-small</title>
	<g fill="none" fill-rule="evenodd">
		<path fill="#035799" stroke="#FFF"
			  d="M14.001 5.518c2.348 0 4.473.951 6.01 2.49a8.473 8.473 0 0 1 2.49 6.01 8.473 8.473 0 0 1-2.49 6.01 8.473 8.473 0 0 1-6.01 2.49 8.473 8.473 0 0 1-6.01-2.49 8.473 8.473 0 0 1-2.49-6.01c0-2.347.952-4.472 2.49-6.01A8.473 8.473 0 0 1 14 5.518Z" />
		<g fill="#FFF">
			<path d="m16.329 11.229 2.145.005c1.887.48 1.711 2.579.323 3.108l1.273 2.439h-1.014l-1.199-2.385h-.662v2.388l-.866-.002V11.23Zm-6.125-.005c1.815.223 2.266 2.804-.048 3.28H9.038v2.27H7.992v-5.548Zm3.396 2.133-.001.938.613.001-.001.011h.394v.616h-1.006l.001.951h-.65l-.001-.37h-.024l.001-.582-.98.001v-.615h.348v-.012h.632v-.605h.023l.001-.334h.65Zm-3.531-1.31h-1.03v1.625h1.104c.994-.43.86-1.3-.074-1.625Zm8.225-.045h-1.099v1.644h1.146c.835-.35 1.004-1.336-.047-1.644Z" />
			<path fill-rule="nonzero"
				  d="M20 18c0 .667-.307 1-.922 1H8.928C8.308 19 8 18.667 8 18h12Zm-.922-9c.615 0 .922.333.922 1H8c0-.667.307-.993.928-.993h10.15V9Z" />
		</g>
	</g>
</svg>
