<svg xmlns="http://www.w3.org/2000/svg" width="40" height="40" viewBox="0 0 40 40">
	<title>mapsight-icons-svg/icn/parken/pundr-default</title>
	<g fill="none" fill-rule="evenodd">
		<g stroke-linejoin="square">
			<rect width="24" height="24" x="8" y="8" fill="#035799" stroke="#FFF" stroke-width="2" rx="4" />
			<rect width="25" height="25" x="7.5" y="7.5" stroke="#000" rx="4" />
		</g>
		<g fill="#FFF">
			<path d="m22.288 15.008 3.3.01c2.902.868 2.633 4.675.497 5.634l1.957 4.423h-1.56L24.64 20.75h-1.018v4.33l-1.333-.003v-10.07Zm3.023 1.402h-1.69v2.982h1.762c1.285-.635 1.545-2.423-.072-2.982ZM19.846 19.367l-.001 1.545h1.546v1l-1.546-.001v1.546h-1V21.91H17.3v-1h1.545v-1.544h1ZM15.404 15c2.79.404 3.485 5.084-.074 5.948h-1.72v4.114H12v-10.06Zm-.21 1.492H13.61v2.946h1.7c1.529-.78 1.322-2.357-.115-2.946Z" />
		</g>
		<g fill="#F8F8F8">
			<path d="M12 11h16v1.417H12zM12 27.58h16v1.417H12z" />
		</g>
	</g>
</svg>
