<svg xmlns="http://www.w3.org/2000/svg" width="22" height="22" viewBox="0 0 22 22">
	<title>mapsight-icons-svg/icn/parken/pundr-xsmall</title>
	<g fill="none" fill-rule="evenodd">
		<path fill="#035799" stroke="#FFF"
			  d="M11 6.5c1.242 0 2.367.503 3.181 1.317A4.486 4.486 0 0 1 15.5 11a4.486 4.486 0 0 1-1.318 3.182A4.486 4.486 0 0 1 11 15.5a4.486 4.486 0 0 1-3.182-1.318A4.486 4.486 0 0 1 6.5 11c0-1.242.504-2.367 1.318-3.182A4.486 4.486 0 0 1 11 6.5Z" />
		<path fill="#FFF"
			  d="m11.522 9.003 1.421.004c1.25.345 1.134 1.855.214 2.236L14 12.998h-.672l-.793-1.716h-.439V13l-.574-.001V9.003ZM9.466 9c1.201.16 1.5 2.018-.032 2.36h-.74v1.633H8V9Zm-.09.592h-.683v1.169h.732c.658-.31.57-.935-.05-1.169Zm3.448-.033h-.728v1.184h.759c.553-.252.665-.962-.03-1.184Z" />
		<path fill="#FFF" d="M10.3 11h1v1h-1z" />
	</g>
</svg>
