<svg xmlns:xlink="http://www.w3.org/1999/xlink" xmlns="http://www.w3.org/2000/svg" width="40" height="40" viewBox="0 0 40 40">
	<defs>
		<path id="a" d="M6.025 19a2 2 0 1 0 0-4 2 2 0 0 0 0 4Z" />
	</defs>
	<g fill="none" fill-rule="evenodd">
		<rect width="25" height="25" x="7.5" y="7.5" fill="#FFF" stroke="#000" rx="4" />
		<path fill="#000" stroke="#000"
			  d="M13.011 17.52a2 2 0 1 0 0-4 2 2 0 0 0 0 4Zm2.227 11v-7.423l5.392-1.472c.451-.122.8-.523.788-.991a1.002 1.002 0 0 0-1.261-.953l-8.414 2.339c-.838.257-1.25 1.058-1.25 1.886v6.614h4.745Z" />
		<path stroke="#000" d="m21.278 17.832 2.733-3.812" />
		<g transform="translate(9.511 10.52)">
			<use xlink:href="#a" fill="#000" />
			<path stroke="#FFF" stroke-width="2"
				  d="M6.025 14a2.99 2.99 0 0 1 2.121.879A2.99 2.99 0 0 1 9.025 17a2.99 2.99 0 0 1-.879 2.121A2.99 2.99 0 0 1 6.025 20a2.99 2.99 0 0 1-2.121-.879A2.99 2.99 0 0 1 3.024 17c0-.828.337-1.578.88-2.121A2.99 2.99 0 0 1 6.024 14Z" />
			<use xlink:href="#a" stroke="#000" stroke-width=".5" />
		</g>
		<path fill="#000" stroke="#000" stroke-width=".5"
			  d="M21.53 29.52a2 2 0 1 0 0-4 2 2 0 0 0 0 4Zm5.981 0a2 2 0 1 0 0-4 2 2 0 0 0 0 4Z" />
		<path stroke="#000" d="M18.151 23.509h10.36a1 1 0 0 0 1-1V11.52a1 1 0 0 0-1-1h-17a1 1 0 0 0-1 1v1" />
	</g>
</svg>
