<svg xmlns="http://www.w3.org/2000/svg" width="34" height="34" viewBox="0 0 34 34">
	<g fill="none" fill-rule="evenodd">
		<rect width="24" height="24" x="5" y="5" fill="#FFF" rx="3" />
		<path stroke="#000"
			  d="m17 26.315 2.944-3.823H24a2.5 2.5 0 0 0 2.5-2.5V10A2.5 2.5 0 0 0 24 7.5H10A2.5 2.5 0 0 0 7.5 10v9.992a2.5 2.5 0 0 0 2.5 2.5h4.067l2.934 3.823z" />
		<path fill="#000"
			  d="M20.774 12.003h1.964c.578 0 1.258.852 1.258 1.419l.011 5.17c0 .566-.68 1.391-1.258 1.391H11.262c-.582 0-1.262-.825-1.262-1.392v-5.353c0-.567.67-1.235 1.25-1.235h2.89l1.234-1.327c.19-.204.462-.676.769-.676h2.625c.287 0 .54.46.743.655l1.263 1.348zm-6.145 3.81c0 1.53 1.277 2.778 2.843 2.778 1.57 0 2.844-1.248 2.844-2.779 0-1.533-1.274-2.778-2.844-2.778-1.566 0-2.843 1.245-2.843 2.778zm6.065-2.789v1.192h2.055v-1.192h-2.055z" />
	</g>
</svg>
