<svg xmlns="http://www.w3.org/2000/svg" width="40" height="40" viewBox="0 0 40 40">
	<g fill="none" fill-rule="evenodd">
		<rect width="25" height="25" x="7.5" y="7.5" fill="#FFF" stroke="#000" rx="4" />
		<path stroke="#000" d="M9.5 14.5h21v12h-21z" />
		<path stroke="#000" d="M11.5 16.5h17v8h-17z" />
		<path stroke="#000" d="M13.5 18.5h13v4h-13z" />
		<path fill="#FFF"
			  d="M17 12h1v16h-1zm5 0h1v16h-1zm8.975 1.818.707.707-5.657 5.657-.707-.707zm0 13.364.707-.707-5.657-5.657-.707.707zM9.025 13.818l-.707.707 5.657 5.657.707-.707zm0 13.364-.707-.707 5.657-5.657.707.707z" />
	</g>
</svg>
