<svg xmlns="http://www.w3.org/2000/svg" width="40" height="40" viewBox="0 0 40 40">
	<g fill="none" fill-rule="evenodd">
		<rect width="25" height="25" x="7.5" y="7.5" fill="#FFF" stroke="#000" rx="4" />
		<path fill="#000"
			  d="M19.858 24.096 16.8 21.9c-.8-.7-1-1.8-.5-2.7l2.083-3.644-1.054-.328c-.164-.065-.37-.048-.706.08-.294.16-.662.35-1.089.565l-.159.08a114.51 114.51 0 0 1-1.945.95l-.86-1.806a106.744 106.744 0 0 0 1.91-.933l.155-.078c.437-.22.806-.41 1.086-.564l.108-.05c.8-.32 1.514-.392 2.165-.128l1.3.4.132.051 1.721.81a2.96 2.96 0 0 1 1.347 1.348l.825 1.653c.13.303.349.394.781.394H27v2h-2.9c-1.201 0-2.16-.536-2.594-1.553l-.4-.8-1.74 3.118 1.733 1.735c.901.8 1.101 2.1.7 3.2L20.1 30H18l1.9-5a.888.888 0 0 0-.042-.904zM25 12a2 2 0 1 1-4.001-.001A2 2 0 0 1 25 12zm4 13a2 2 0 1 1-4.001-.001A2 2 0 0 1 29 25zm-19 0v-2h4.5c.29 0 .605-.158.8-.4l.3-.4 1.6 1.2-.32.425C16.296 24.558 15.41 25 14.5 25H10z" />
	</g>
</svg>
