<svg xmlns="http://www.w3.org/2000/svg" width="34" height="34" viewBox="0 0 34 34">
	<g fill="none" fill-rule="evenodd">
		<rect width="24" height="24" x="5" y="5" fill="#FFF" rx="3" />
		<path fill="#000"
			  d="M16.858 21.096 13.8 18.9c-.8-.7-1-1.8-.5-2.7l2.083-3.644-1.054-.328c-.164-.065-.37-.048-.706.08-.294.16-.662.35-1.089.565l-.159.08a114.51 114.51 0 0 1-1.945.95l-.86-1.806a106.747 106.747 0 0 0 1.91-.933l.155-.078c.437-.22.806-.41 1.086-.564l.108-.05c.8-.32 1.514-.392 2.165-.128l1.3.4.132.051 1.721.81a2.96 2.96 0 0 1 1.347 1.348l.825 1.653c.13.303.349.394.781.394H24v2h-2.9c-1.201 0-2.16-.536-2.594-1.553l-.4-.8-1.74 3.118 1.733 1.735c.901.8 1.101 2.1.7 3.2L17.1 27H15l1.9-5a.888.888 0 0 0-.042-.904zM22 9a2 2 0 1 1-4.001-.001A2 2 0 0 1 22 9zm4 13a2 2 0 1 1-4.001-.001A2 2 0 0 1 26 22zM7 22v-2h4.5c.29 0 .605-.158.8-.4l.3-.4 1.6 1.2-.32.425C13.296 21.558 12.41 22 11.5 22H7z" />
	</g>
</svg>
