<svg xmlns="http://www.w3.org/2000/svg" width="34" height="34" viewBox="0 0 34 34">
	<g fill="none" fill-rule="evenodd">
		<path fill="#fff" d="M29.967 17.006c0 7.16-5.804 12.965-12.965 12.965S4.037 24.166 4.037 17.006 9.842 4.04 17.002 4.04s12.965 5.805 12.965 12.966"/>
		<path fill="#000" d="M29.967 17.006c0 7.16-5.804 12.965-12.965 12.965S4.037 24.166 4.037 17.006 9.842 4.04 17.002 4.04s12.965 5.805 12.965 12.966m-1.934 0c0-6.092-4.939-11.031-11.03-11.031-6.093 0-11.032 4.939-11.032 11.03 0 6.093 4.939 11.031 11.031 11.031s11.03-4.938 11.03-11.03zm-5.333 0a5.698 5.698 0 1 1-11.396 0 5.698 5.698 0 0 1 11.396 0"/>
	</g>
</svg>
