<svg xmlns="http://www.w3.org/2000/svg" width="28" height="28" viewBox="0 0 28 28">
	<g fill="none" fill-rule="evenodd">
		<path fill="#fff" d="M24.679 14.005c0 5.896-4.78 10.677-10.677 10.677S3.325 19.902 3.325 14.005 8.105 3.327 14.002 3.327s10.677 4.78 10.677 10.678"/>
		<path fill="#000" d="M24.679 14.005c0 5.896-4.78 10.677-10.677 10.677S3.325 19.902 3.325 14.005 8.105 3.327 14.002 3.327s10.677 4.78 10.677 10.678m-1.593 0a9.084 9.084 0 1 0-18.167 0 9.084 9.084 0 0 0 18.166 0zm-4.392 0a4.692 4.692 0 1 1-9.385 0 4.692 4.692 0 0 1 9.385 0"/>
	</g>
</svg>
