<svg xmlns="http://www.w3.org/2000/svg" width="40" height="40" viewBox="0 0 40 40">
	<g fill="none" fill-rule="evenodd">
		<path fill="#FFF"
			  d="M32.967 20.006c0 7.16-5.804 12.965-12.965 12.965-7.16 0-12.965-5.805-12.965-12.965 0-7.161 5.805-12.966 12.965-12.966s12.965 5.805 12.965 12.966z" />
		<path fill="#000"
			  d="M32.967 20.006c0 7.16-5.804 12.965-12.965 12.965-7.16 0-12.965-5.805-12.965-12.965 0-7.161 5.805-12.966 12.965-12.966s12.965 5.805 12.965 12.966zm-1.934 0c0-6.092-4.939-11.031-11.03-11.031-6.093 0-11.032 4.939-11.032 11.03 0 6.093 4.939 11.031 11.031 11.031 6.092 0 11.03-4.938 11.03-11.03zm-5.333 0a5.698 5.698 0 1 1-11.396 0 5.698 5.698 0 0 1 11.396 0z" />
	</g>
</svg>
