<svg xmlns="http://www.w3.org/2000/svg" width="28" height="28" viewBox="0 0 28 28">
	<g fill="none" fill-rule="evenodd">
		<path stroke="#FFF"
			  d="m15.295 6.538 7.86 13.72a1.5 1.5 0 0 1-1.302 2.245H6.141a1.5 1.5 0 0 1-1.302-2.245l7.853-13.72a1.5 1.5 0 0 1 2.603 0z" />
		<path fill="#FFF" stroke="#B80707" stroke-linejoin="square" stroke-width="1.7"
			  d="M14.124 7.208a.15.15 0 0 0-.26 0L6.01 20.928a.15.15 0 0 0 .13.225h15.722a.15.15 0 0 0 .13-.225l-7.869-13.72z" />
		<path stroke="#FFF"
			  d="m15.295 6.536 7.87 13.72a1.5 1.5 0 0 1-1.302 2.247H6.141a1.5 1.5 0 0 1-1.302-2.245l7.853-13.72a1.5 1.5 0 0 1 2.603-.002z" />
		<path fill="#000"
			  d="M18.068 17.942h-.105s.067-.234.068-.073c.002.532-.033 1.993-.033 1.993s-.066.144-.146.144h-.412c-.08 0-.366-.074-.366-.144l-.039-.632h-2.099s.011.504.011.632c0 .129-.065.144-.146.144h-.577c-.082 0-.207-.074-.207-.144 0 0-.038-.292-.042-.818a38.62 38.62 0 0 0-.06-1.004l-.066-.005v.148h-.775v-.774h.775v.07l.21-.013s-.095.318-.079.3c0 0 .314-.623.41-.73.114-.124.166-.748.557-.777a12.725 12.725 0 0 1 2.088 0c.391.029.52.352.633.476.096.106.4.935.4.935v-.01a6.643 6.643 0 0 0-.203-.27l.203.022v-.076h.775v.774h-.775v-.168zm-3.182-.325h2.31s-.295-.274-.444-.423c-.02-.006-.062-.126-.135-.13-.458-.039-.401 0-.57 0-.168 0-.222.003-.679.042-.072.004-.139.083-.158.088-.137.15-.198.183-.324.423zm-.956-.57-.19.11h-1.752l.03.645c0 .064.09.064-.03.188s-.487.053-.487.053c-.07 0-.266-.053-.408-.053-.141 0-.155-1.476-.215-1.476h-.804c-.07 0-.128-.865-.128-.93l.128-.083c0-.065.171-.03.242-.03h.562c.068-.098.697-.815.783-.918.1-.116.643-.505.984-.532.417-.037-.245-.006-.093-.006.153 0 .665-.036 1.082 0 .341.028.569.051.668.167.085.1.627 1.18.627 1.18.06.076.007.625.056.695h.52c.071 0 .174-.238.174-.173l.094.15c0 .025-.033.048-.033.048h-.841s-.186-.01-.634-.01c-.641 0-.337.442-.337.442-.061.08-.107.442-.107.442l.109.09zm-2.135-1.432c0 .14 2.516.14 2.516 0s-.562-.258-.693-.398c-.017-.005-.072-.106-.135-.11-.4-.036-.607-.023-.755-.023-.147 0 .452-.005.052.031-.063.005-.346-.003-.475.139-.129.141-.51.222-.51.361z" />
	</g>
</svg>
