<svg xmlns="http://www.w3.org/2000/svg" width="40" height="40" viewBox="0 0 40 40">
	<g fill="none" fill-rule="evenodd">
		<path fill="#FFF" stroke="#000"
			  d="M21.714 9.467a2 2 0 0 0-3.432-.002L6.747 28.715A2.5 2.5 0 0 0 8.892 32.5h22.186a2.5 2.5 0 0 0 2.146-3.783l-11.51-19.25z" />
		<path fill="#FFF" stroke="#B80707" stroke-linejoin="square" stroke-width="1.8"
			  d="M20.079 11.606a.1.1 0 0 0-.173 0L9.289 29.846a.1.1 0 0 0 .087.15H30.42a.1.1 0 0 0 .087-.15l-10.428-18.24z" />
		<path stroke="#FFF"
			  d="m21.294 10.912 10.428 18.24a1.5 1.5 0 0 1-1.302 2.244H9.376a1.5 1.5 0 0 1-1.297-2.254l10.617-18.24a1.5 1.5 0 0 1 2.598.01z" />
		<path fill="#000"
			  d="M16 22.715v.004h-1v-.03a.148.148 0 0 1-.07-.125l.07-.197V22h.303a.31.31 0 0 1 .104-.027h.442a70.8 70.8 0 0 1 1.04-1.41c.127-.15.373-.539.815-.574.538-.047.973-.006 1.17-.006.198 0 .832-.041 1.37.006.44.035.5.424.627.574.11.129 1.045.962 1.045.962.076.098.009.365.072.455h.672c.091 0 .224.137.224.22l.122.195c0 .03-.043.061-.043.061h-1.086s-1.33-.014-1.907-.014c-.83 0-.638.572-.638.572-.079.102-.138.933-.138.933l-1.15.117-.247-.059h-.848v.866c0 .084-.074.152-.165.152h-.611c-.092 0-.179-.068-.179-.152 0 0-.08-1.783.117-2.156H16zm9 3.068h-.136s.087-.303.088-.095l.008 2.167s-.085.185-.189.185h-.531c-.104 0-.27-.096-.27-.185v-.89h-3.941l-.023.89a.197.197 0 0 1-.19.185h-.543c-.105 0-.267-.096-.267-.185l-.017-1.696a.62.62 0 0 1 .097-.343L19 25.809V26h-1v-1h1v.09l.27-.016s-.21-.67-.19-.692c0 0 .725-.315.85-.453.146-.16.213-.844.718-.881a16.764 16.764 0 0 1 1.346-.057c.227 0 .735.006 1.35.057.505.037.572.721.719.881.125.138.847.421.847.421.097.105-.244.623-.172.719l.262.03V25h1v1h-1v-.217zm-4.991-.768h4.022c-.12-.168-.213-.665-.406-.857-.026-.007-.08-.163-.174-.169a17.995 17.995 0 0 0-2.851 0c-.093.006-.2.185-.226.191-.176.193-.203.526-.365.835zm-3.128-3.045h4.19c-.119-.157-.457-.663-.626-.843-.022-.007-.294-.137-.376-.144-.517-.046-.986-.029-1.177-.029-.189 0-.505-.005-1.022.04-.081.007-.207-.003-.373.18-.166.182-.507.651-.616.796z" />
	</g>
</svg>
