<svg xmlns="http://www.w3.org/2000/svg" width="34" height="34" viewBox="0 0 34 34">
	<g fill="none" fill-rule="evenodd">
		<rect width="24" height="24" x="5" y="5" fill="#FFF" rx="3" />
		<path fill="#000"
			  d="M11.497 20.93v1.412c0 1.72-2.486 1.74-2.486 0V20.93H8v-4.42c0-1.187.955-1.408 1.493-1.476l1.362-3.1c.256-.662.81-1.509 1.857-1.509h1.318v-.877c0-.363.197-.547.518-.547h4.931c.32 0 .517.184.517.547v.877h1.25c1.046 0 1.6.847 1.857 1.509l1.36 3.1c.54.068 1.495.289 1.495 1.476v4.421h-.98v1.412c0 1.74-2.486 1.72-2.486 0V20.93H11.497zm-.357-5.979h11.74l-.819-2.314c-.128-.384-.32-.662-.768-.666h-8.566c-.448.004-.64.282-.769.666l-.818 2.314zm-.128 3.151a1.16 1.16 0 0 0 1.149-1.172 1.16 1.16 0 0 0-1.149-1.172 1.16 1.16 0 0 0-1.148 1.172 1.16 1.16 0 0 0 1.148 1.172zm11.995 0a1.16 1.16 0 0 0 1.149-1.172 1.16 1.16 0 0 0-1.149-1.172 1.16 1.16 0 0 0-1.148 1.172 1.16 1.16 0 0 0 1.148 1.172z" />
	</g>
</svg>
