<svg xmlns="http://www.w3.org/2000/svg" width="34" height="34" viewBox="0 0 34 34">
	<g fill="none" fill-rule="evenodd">
		<rect width="24" height="24" x="5" y="5" fill="#FFF" rx="3" />
		<g fill="#241F20">
			<path d="M15.062 8.008h9.94c.343 0 .998.692.998.972v8.189C26 19.835 23.317 22 20 22c-3.31 0-6-2.165-6-4.831V8.98c0-.28.72-.972 1.062-.972zm1.948 10.469c-.005.034-.086.664.306.331a3.85 3.85 0 0 1 2.67-1.091c1.084 0 2.062.458 2.767 1.191.188.174.238.07.247-.065-.138-1.591-1.426-2.844-3.014-2.844-1.466 0-2.688 1.064-2.976 2.478zm-1.95-7.404c.192.942 1.007 1.988 1.984 1.988 1.059 0 1.918-1.172 2.01-2.232-.006-.09-.04-.16-.165-.043-.47.488-3.153.517-3.625.066-.261-.222-.207.198-.204.221zm9.987 0c.003-.023.057-.443-.204-.22-.472.45-3.155.421-3.625-.067-.125-.116-.159-.047-.164.043.092 1.06.95 2.232 2.009 2.232.978 0 1.792-1.046 1.984-1.988z" />
			<path stroke="#FFF"
				  d="M9.06 11.508h9.987c.607 0 1.452.921 1.453 1.492v8.169c0 2.97-2.93 5.331-6.5 5.331-3.566 0-6.5-2.362-6.5-5.331V13c0-.573.96-1.492 1.56-1.492zm2.712 9.66a2.531 2.531 0 0 0 2.214 1.332 2.54 2.54 0 0 0 2.216-1.334 4.286 4.286 0 0 1-4.43.002zm-.268-.728v.01l-.004-.027.004.017zm-1.952-3.36.003-.02v.005a2.073 2.073 0 0 0-.003.015zm.21-.585c.76-.155 1.812-.144 2.58.023-.283-.58-.797-1.02-1.298-1.02-.475 0-.987.428-1.282.997zm8.793.585a2.072 2.072 0 0 0-.003-.02l.004.02zm-.213-.592c-.296-.565-.805-.99-1.279-.99-.512 0-1.037.46-1.316 1.03.776-.176 1.836-.19 2.595-.04zm-2.79.71a1.632 1.632 0 0 0 0-.012z" />
		</g>
	</g>
</svg>
