<svg xmlns="http://www.w3.org/2000/svg" width="40" height="40" viewBox="0 0 40 40">
	<g fill="none" fill-rule="evenodd">
		<g stroke-linejoin="square">
			<rect width="24" height="24" x="8" y="8" fill="#035799" stroke="#fff" stroke-width="2" rx="4"/>
			<rect width="25" height="25" x="7.5" y="7.5" stroke="#000" rx="4"/>
		</g>
		<path fill="#f8f8f8" d="M21.77 15.146c.637.165 1.315.47 1.697.917.383.446.563 1.175.573 2.013-.005.92-.362 1.594-.976 2.14-.614.545-1.191.744-2.204.85h-1.857v4.01h-2.007V15.003h3.038c.776-.005 1.098-.022 1.735.143ZM20.343 16.4l-1.341.003v3.295l1.341.003c.433.004.942-.088 1.24-.275.296-.187.587-.88.6-1.457-.013-.576-.275-1.107-.57-1.295-.298-.187-.837-.278-1.27-.274M11.982 11H28v1.417H11.982zm0 16.583H28V29H11.982z"/>
	</g>
</svg>
