<svg xmlns="http://www.w3.org/2000/svg" width="28" height="28" viewBox="0 0 28 28">
	<g fill="none" fill-rule="evenodd">
		<path fill="#035799" stroke="#fff" d="M14.001 5.518c2.348 0 4.473.951 6.01 2.49a8.47 8.47 0 0 1 2.49 6.01 8.47 8.47 0 0 1-2.49 6.01 8.47 8.47 0 0 1-6.01 2.49 8.47 8.47 0 0 1-6.01-2.49 8.47 8.47 0 0 1-2.49-6.01c0-2.347.952-4.472 2.49-6.01A8.47 8.47 0 0 1 14 5.518Z"/>
		<path fill="#f8f8f8" d="M15.046 10.7c.408.113.84.322 1.084.627s.36.804.366 1.378c-.003.63-.231 1.09-.623 1.464s-.76.51-1.407.581h-1.185v2.744H12v-6.892h1.939c.495-.003.7-.015 1.107.098m-.91.857-.855.002v2.255l.856.001c.276.004.601-.06.79-.187.19-.128.376-.602.384-.997-.008-.394-.175-.758-.364-.886-.19-.128-.534-.19-.81-.188ZM18 18v1h-8v-1zm0-9v1h-8V9z"/>
	</g>
</svg>
