<svg xmlns="http://www.w3.org/2000/svg" width="34" height="34" viewBox="0 0 34 34">
	<g fill="none" fill-rule="evenodd">
		<rect width="23" height="23" x="5.5" y="5.5" fill="#035799" stroke="#fff" rx="3"/>
		<path fill="#f8f8f8" d="M25 24.583V26H9v-1.417zm-6.224-12.464c.638.165 1.315.47 1.697.917.382.446.562 1.175.571 2.013-.005.92-.361 1.594-.974 2.14-.614.545-1.19.744-2.202.85h-1.855v4.01H14.01V11.976h3.034c.775-.005 1.097-.022 1.733.143Zm-1.423 1.253-1.34.003v3.295l1.34.002c.433.005.941-.087 1.238-.274.296-.187.587-.88.6-1.457-.013-.576-.275-1.107-.57-1.295-.297-.187-.835-.278-1.268-.274M25 8v1.417H9V8z"/>
	</g>
</svg>
