<svg xmlns="http://www.w3.org/2000/svg" width="34" height="34" viewBox="0 0 34 34">
	<g fill="none" fill-rule="evenodd">
		<circle cx="17" cy="17" r="11" fill="#fff"/>
		<circle cx="17" cy="17" r="8.75" fill="#fff" stroke="#b80707" stroke-linejoin="square" stroke-width="2.5"/>
		<circle cx="17" cy="17" r="10.5" stroke="#fff"/>
		<path fill="#000" d="M19.323 13.983v1.385h-1.668v3.736q0 .405.136.542.134.135.542.135.135 0 .26-.01c.082-.008.943-.145 1.018-.16v1.243a32 32 0 0 1-1.296.17 12 12 0 0 1-.485.011q-.373 0-.706-.05a1.7 1.7 0 0 1-.588-.198 1.05 1.05 0 0 1-.4-.418q-.148-.271-.147-.712v-4.289h-1.407v-1.385h1.407v-2.001h1.666v2z"/>
	</g>
</svg>
