<svg xmlns="http://www.w3.org/2000/svg" width="34" height="34" viewBox="0 0 34 34">
	<g fill="none" fill-rule="evenodd">
		<circle cx="17" cy="17" r="11" fill="#FFF" />
		<circle cx="17" cy="17" r="8.75" fill="#FFF" stroke="#B80707" stroke-linejoin="square" stroke-width="2.5" />
		<circle cx="17" cy="17" r="10.5" stroke="#FFF" />
		<path fill="#000"
			  d="M19.323 13.983v1.385h-1.668v3.736c0 .27.045.451.136.542.09.09.27.135.542.135.09 0 .177-.003.26-.01.082-.008.943-.145 1.018-.16v1.243a32.02 32.02 0 0 1-1.296.17 11.47 11.47 0 0 1-.485.011c-.249 0-.484-.017-.706-.05a1.663 1.663 0 0 1-.588-.198 1.045 1.045 0 0 1-.4-.418c-.099-.181-.147-.418-.147-.712v-4.289h-1.407v-1.385h1.407v-2.001h1.666v2h1.668z" />
	</g>
</svg>
