<svg xmlns="http://www.w3.org/2000/svg" width="28" height="28" viewBox="0 0 28 28">
	<g fill="none" fill-rule="evenodd">
		<circle cx="14" cy="14" r="9" fill="#fff"/>
		<circle cx="14" cy="14" r="6.9" fill="#fff" stroke="#b80707" stroke-linejoin="square" stroke-width="2.2"/>
		<circle cx="14" cy="14" r="8.5" stroke="#fff"/>
		<path fill="#000" d="M15.928 12.073V13H14.5v2.748q0 .273.09.363c.061.06-.162.09.02.09q.09 0 .173-.007a67 67 0 0 0 1.057-.106v.831a44 44 0 0 1-1.242.114q-.166.007-.325.007-.25.001-.472-.034a1.1 1.1 0 0 1-.393-.132.7.7 0 0 1-.268-.28 1 1 0 0 1-.098-.475V13H12.1v-.927h.94v-1.838h1.46v1.838z"/>
	</g>
</svg>
