<svg xmlns="http://www.w3.org/2000/svg" width="22" height="22" viewBox="0 0 22 22">
	<g fill="none" fill-rule="evenodd">
		<circle cx="11" cy="11" r="6" fill="#fff"/>
		<circle cx="11" cy="11" r="4.25" fill="#fff" stroke="#b80707" stroke-linejoin="square" stroke-width="1.5"/>
		<circle cx="11" cy="11" r="5.5" stroke="#fff"/>
		<path fill="#000" d="M12.463 10v.877h-1.23l-.034.859q0 .185.061.245c.041.041-.11.062.013.062a1 1 0 0 0 .118-.005l1.038-.057.034.973-1.164.061a7 7 0 0 1-.782-.018.8.8 0 0 1-.266-.09.5.5 0 0 1-.182-.189.7.7 0 0 1-.067-.322v-1.519h-.771V10h.771V8.797h1.23V10z"/>
	</g>
</svg>
