<svg xmlns="http://www.w3.org/2000/svg" width="28" height="28" viewBox="0 0 28 28">
	<g fill="none" fill-rule="evenodd">
		<circle cx="14" cy="14" r="9" fill="#FFF" />
		<circle cx="14" cy="14" r="6.9" fill="#FFF" stroke="#B80707" stroke-linejoin="square" stroke-width="2.2" />
		<circle cx="14" cy="14" r="8.5" stroke="#FFF" />
		<path fill="#000"
			  d="M15.928 12.073V13H14.5v2.748c0 .182.03.303.09.363.061.06-.162.09.02.09.06 0 .118-.002.173-.007a66.523 66.523 0 0 0 1.057-.106v.831a43.99 43.99 0 0 1-1.242.114c-.11.005-.22.007-.325.007-.166 0-.324-.01-.472-.034a1.112 1.112 0 0 1-.393-.132.699.699 0 0 1-.268-.28.997.997 0 0 1-.098-.475V13H12.1v-.927h.94v-1.838h1.46v1.838h1.428z" />
	</g>
</svg>
