<svg xmlns="http://www.w3.org/2000/svg" width="22" height="22" viewBox="0 0 22 22">
	<g fill="none" fill-rule="evenodd">
		<circle cx="11" cy="11" r="6" fill="#FFF" />
		<circle cx="11" cy="11" r="4.25" fill="#FFF" stroke="#B80707" stroke-linejoin="square" stroke-width="1.5" />
		<circle cx="11" cy="11" r="5.5" stroke="#FFF" />
		<path fill="#000"
			  d="M12.463 10v.877h-1.23l-.034.859c0 .123.02.205.061.245.041.041-.11.062.013.062a1.3 1.3 0 0 0 .118-.005 183.17 183.17 0 0 1 1.038-.057l.034.973-1.164.061a6.668 6.668 0 0 1-.782-.018.754.754 0 0 1-.266-.09.474.474 0 0 1-.182-.189.676.676 0 0 1-.067-.322v-1.519h-.771V10h.771V8.797h1.23V10h1.231z" />
	</g>
</svg>
