<svg xmlns="http://www.w3.org/2000/svg" width="34" height="34" viewBox="0 0 34 34">
	<g fill="none" fill-rule="evenodd">
		<rect width="24" height="24" x="5" y="5" fill="#FFCA4F" rx="3" />
		<path fill="#000"
			  d="M22.134 23.445c-1.144 1.022-2.67 1.534-4.744 1.534-2.103 0-4.584-.508-5.707-1.523C10.561 22.44 10 20.875 10 18.757V9h2.939v9.757c0 .42.04.933.12 1.338.08.407.25.766.507 1.077.257.312.615.566 1.073.762.458.195 2.025.293 2.797.293 1.35 0 2.282-.272 2.797-.815.514-.544.771-1.494.771-2.655V9h2.943v9.757c0 2.103-.67 3.666-1.813 4.688z" />
	</g>
</svg>
