<svg xmlns="http://www.w3.org/2000/svg" width="28" height="28" viewBox="0 0 28 28">
	<g fill="none" fill-rule="evenodd">
		<path fill="#FFCA4F" stroke="#FFF" d="M14.001 5.518a8.5 8.5 0 1 0 0 17 8.5 8.5 0 0 0 0-17z" />
		<path fill="#000"
			  d="M16.96 18.286c-.656.586-1.532.88-2.721.88-1.207 0-2.63-.292-3.273-.874-.644-.582-.966-1.48-.966-2.695V9.02h1.686v6.576c0 .24.023.534.069.767.046.233.143.44.29.618.148.179.353.324.616.437.262.112 1.162.168 1.604.168.775 0 1.31-.156 1.604-.468.295-.312.443-.857.443-1.522V9.02H18v6.576c0 1.206-.384 2.102-1.04 2.689z" />
	</g>
</svg>
