<svg xmlns="http://www.w3.org/2000/svg" width="34" height="34" viewBox="0 0 34 34">
	<g fill="none" fill-rule="evenodd">
		<rect width="24" height="24" x="5" y="5" fill="#ffca4f" rx="3"/>
		<path fill="#000" d="M22.134 23.445c-1.144 1.022-2.67 1.534-4.744 1.534-2.103 0-4.584-.508-5.707-1.523Q10 21.933 10 18.757V9h2.939v9.757c0 .42.04.933.12 1.338q.12.61.507 1.077.386.468 1.073.762c.458.195 2.025.293 2.797.293q2.025 0 2.797-.815c.514-.544.771-1.494.771-2.655V9h2.943v9.757c0 2.103-.67 3.666-1.813 4.688"/>
	</g>
</svg>
