<svg xmlns="http://www.w3.org/2000/svg" width="24" height="24" viewBox="0 0 24 24"><g fill="none" fill-rule="evenodd" transform="translate(-5 -5)"><path fill="#000" d="m16.051 12.999 2.023.005 2.403 3.029 2.37-3.03h2.112a2 2 0 0 1 2 2v8.966H14.013l.031-8.975a2.006 2.006 0 0 1 2.007-1.995"/><circle cx="20.498" cy="9.488" r="3.498" fill="#000"/><g fill-rule="nonzero"><path fill="#fff" stroke="#fff" stroke-width="1.5" d="M21.873 20.944v1.85h1.67v2.75h-1.67v1.85h-2.86v-1.85h-1.67v-2.75h1.67v-1.85z"/><path fill="#fff" stroke="#fff" stroke-width="1.5" d="M14.975 19.314c1.041 0 1.855.42 2.446 1.25.516.725.804 1.753.804 3.11 0 1.364-.289 2.395-.804 3.12-.59.83-1.405 1.25-2.446 1.25s-1.855-.42-2.446-1.25c-.515-.725-.804-1.756-.804-3.12q.001-.977.2-1.73a4.1 4.1 0 0 1 .62-1.377 3 3 0 0 1 1.053-.928 2.9 2.9 0 0 1 1.377-.325Zm-.057 2.758-.04.025c-.057.045-.134.131-.179.143l.214.015-.04.124a3 3 0 0 0-.083.438 7 7 0 0 0-.045.857q0 .473.045.863.037.33.123.566c.012.032.055.04.116.037l.01-.027q.083-.24.121-.576.045-.39.045-.863 0-.471-.045-.857a2.7 2.7 0 0 0-.122-.572.4.4 0 0 0-.093-.172z"/><path fill="#fff" stroke="#fff" stroke-width="1.5" d="m12.16 19.417.045.709.04.602.02.304.02.315.049.782-.783.015a5 5 0 0 0-.565.04l-.058.008.043.017q.518.201.877.522l.138.132q.41.424.594.99.166.509.167 1.081.001.519-.187 1.065-.192.555-.582 1.007t-.99.743c-.395.191-.861.295-1.401.295-1.1 0-1.914-.376-2.48-1.063-.528-.642-.82-1.52-.82-2.657 0-.773.124-1.455.364-2.05a4.2 4.2 0 0 1 1.075-1.569 4.6 4.6 0 0 1 1.656-.957 6.4 6.4 0 0 1 1.743-.314l.324-.01.71-.007ZM9.711 24.68c-.055-.059-.16-.05-.335-.018l-.073.013v.014q.01.091.024.18c.02.13.05.244.1.34a.2.2 0 0 0 .068.09c.022.014.052.006.08.006.013 0 .029.008.04.002a.2.2 0 0 0 .066-.06.4.4 0 0 0 .058-.12.6.6 0 0 0 .027-.172c0-.108.004-.21-.055-.275Z"/><path fill="#000" d="M18.094 23.544h1.67v-1.85h1.36v1.85h1.67v1.25h-1.67v1.85h-1.36v-1.85h-1.67zm-.619.13q0 1.75-.665 2.685t-1.835.935c-1.17 0-1.392-.312-1.835-.935q-.665-.934-.665-2.685 0-.87.175-1.54a3.4 3.4 0 0 1 .505-1.13q.33-.46.79-.7t1.03-.24q1.17 0 1.835.935t.665 2.675m-1.52 0q0-.52-.05-.945a3.4 3.4 0 0 0-.16-.735 1.14 1.14 0 0 0-.3-.48.68.68 0 0 0-.47-.17.66.66 0 0 0-.465.17 1.2 1.2 0 0 0-.3.48 3.2 3.2 0 0 0-.165.735q-.05.425-.05.945c0 .52.017.663.05.95q.05.43.165.74t.3.48a.66.66 0 0 0 .465.17.68.68 0 0 0 .47-.17 1.14 1.14 0 0 0 .3-.48q.11-.31.16-.74c.05-.43.05-.603.05-.95m-6.548.22q-.22 0-.47.04a1.4 1.4 0 0 0-.39.11q0 .04-.005.12a4.4 4.4 0 0 0 .045.82q.05.32.17.56t.32.375.5.135a.8.8 0 0 0 .425-.105 1 1 0 0 0 .29-.265q.114-.16.17-.355a1.4 1.4 0 0 0 .055-.375q0-.51-.255-.785t-.855-.275m.19-1.16q.65 0 1.105.175t.745.475.42.7.13.85q0 .4-.145.82a2.3 2.3 0 0 1-.44.76 2.3 2.3 0 0 1-.75.56q-.456.22-1.075.22-1.25 0-1.9-.79t-.65-2.18q0-1 .31-1.77a3.5 3.5 0 0 1 .885-1.295 3.85 3.85 0 0 1 1.39-.8 5.9 5.9 0 0 1 1.835-.285l.04.605.04.615q-.51.01-.955.095a3.2 3.2 0 0 0-.81.265q-.365.18-.635.465c-.27.285-.32.422-.42.695a2 2 0 0 1 .45-.14q.23-.04.43-.04"/></g></g></svg>
