<svg xmlns="http://www.w3.org/2000/svg" width="24" height="24" viewBox="0 0 24 24"><g fill="none" fill-rule="evenodd"><path fill="#000" d="m7.205 10.99 2.568.005q.704 2.002 2.228 2.002t2.196-2.002h2.185c.963 0 1.81.638 2.076 1.564l2.707 9.425H5.01l.029-8.84a2.166 2.166 0 0 1 2.167-2.155Z"/><path stroke="#fff" stroke-width="1.5" d="M16.067 19.5c.345 1.01-5.287-2.833-7.032-4.663q-1.745-1.83-1.745-4.01V9.73"/><path fill="#fff" d="M14 18h2.388l1.429 4H14z"/><g transform="translate(4.991 1.985)"><path stroke="#000" d="M7.024-.5c1.395 0 2.658.565 3.572 1.48a5.04 5.04 0 0 1 1.456 4.072H1.996A5.04 5.04 0 0 1 3.45.98 5.04 5.04 0 0 1 7.024-.5Z"/><rect width="14.018" height="4" y="2.552" fill="#000" rx="1.2"/><circle cx="7.024" cy="4.552" r="3.988" fill="#000" stroke="#fff" stroke-width="1.14"/><path fill="#fff" d="M2.471 4.552h1v3h-1zm8.105 0h1v3h-1z"/></g></g></svg>
