<svg xmlns="http://www.w3.org/2000/svg" width="24" height="24" viewBox="0 0 24 24"><g fill="none" fill-rule="evenodd"><path fill="#000" d="M4.02 2H15a1 1 0 0 1 1 1v16a1 1 0 0 1-1 1H4.001a1 1 0 0 1-1-1.001l.019-16a1 1 0 0 1 1-.999"/><path stroke="#fff" d="M5 5.5h5.886M5 7.5h9m-9 2h9m-9 2h9"/><g transform="translate(13 12)"><path fill="#fff" d="M.436 5.419H2V8H0z"/><circle cx="4.5" cy="2.5" r="4" fill="#fff" stroke="#fff" stroke-width="3"/><circle cx="4.5" cy="2.5" r="3.25" stroke="#000" stroke-width="1.5"/><path fill="#fff" stroke="#000" stroke-width="1.5" d="m6.094 3.25.83 5.94L4.5 8.195l-2.404.987.742-5.932z"/><circle cx="4.5" cy="2.5" r="3.25" fill="#fff" stroke="#000" stroke-width="1.5"/><circle cx="4.5" cy="2.5" r="1.5" fill="#000"/></g></g></svg>
