<svg xmlns="http://www.w3.org/2000/svg" width="24" height="24" viewBox="0 0 24 24"><g fill="none" fill-rule="evenodd"><path fill="#000" d="M3.511 19.446a3.01 3.01 0 0 0 3.07 2.59l-1.327-2.45.838-1.545 1.725.192 1.262 2.332a3.01 3.01 0 0 0-1.46-4.33v-5.77h-2.6l-.001 5.936a3.01 3.01 0 0 0-1.507 3.045"/><path fill="#000" d="M9.112 4.567a3.01 3.01 0 0 0-3.069-2.59l1.326 2.45-.837 1.544-1.725-.192-1.263-2.332a3.01 3.01 0 0 0 1.46 4.33l.001 5.77h2.6V7.611a3.01 3.01 0 0 0 1.507-3.044"/><path stroke="#000" stroke-width="1.5" d="M16 5.7v-.825c0-1.665-3-1.236-3-2.885V.982"/><path fill="#000" stroke="#fff" stroke-width=".5" d="M16 5.796c1.56 0 2.956.482 3.919 1.648.774.938 1.273 2.33 1.326 4.302l.005.354v3.888c0 2.16-.511 3.662-1.331 4.655-.963 1.166-2.359 1.649-3.919 1.649s-2.956-.483-3.919-1.649c-.774-.938-1.273-2.329-1.326-4.301l-.005-.354V12.1c0-2.162.511-3.663 1.331-4.656.963-1.166 2.359-1.648 3.919-1.648Zm.27 2.073c-.095-.079-.218-.07-.841.412-.19.381-.304.91-.304 1.491s.114 1.11.304 1.492c.086.173.187.316.301.411.083.07.173.114.27.114a.43.43 0 0 0 .27-.114c.114-.095.215-.238.301-.411.19-.382.304-.91.304-1.492s-.114-1.11-.304-1.491a1.3 1.3 0 0 0-.301-.412Z"/></g></svg>
