<svg xmlns="http://www.w3.org/2000/svg" width="34" height="34" viewBox="0 0 24 24">
	<path fill-rule="evenodd"
	      d="M21 3v3h-1V3c0-.5-1-.5-1 0v3h-1c0 .54443-.02696 2.94223 0 3.5 0 1 1 1.5 2 1.5 0 .7893-.3979 1.5-1 1.5-.5 0-2 1-2 2.5 0 1 0 1-1 1v1c2 0 2-1 2-2 0-.60854.52316-1.37593 1-1.5.67532-.08213 2-.5 2-2.5 1 0 2-.5 2-1.5V6h-1V3c0-.5-1-.5-1 0m-8.93635 6c.82232 0 1.28136.62448 1.51088 1.1572l.04614.1117L15 13c.45762.08034 1 .17572 1 1.0649V18h-1v1c0 1.4478-2 1.43078-2 0v-1H4v1c0 1.43078-2 1.4478-2 0v-1H1v-3.9351c0-.98798.54994-1.00768 1-1.0649l1.38439-2.74417C3.59833 9.70499 4.06194 9 4.93564 9zm-8.50681 4.44022c-.55243 0-1.00002.4477-1.00002 1 0 .55227.4476 1 1.00002 1 .5524 0 .99998-.44773.99998-1 0-.5523-.44757-1-.99998-1m10.01887 0c-.55206 0-1.00002.4477-1.00002 1 0 .55227.44796 1 1.00002 1 .5524 0 .99998-.44773.99998-1 0-.5523-.44758-1-.99998-1M12 10H5c-.3404.00324-.55578.48224-.66309.7573L3.5 13h10l-.75514-2.15778c-.107-.31986-.37038-.83865-.74486-.84222"/>
</svg>
