<svg xmlns="http://www.w3.org/2000/svg" width="24" height="24" viewBox="0 0 24 24"><path fill-rule="evenodd" d="M9.948 11.008v7.868q0 .462-.315.794-.315.333-.754.332c-.439-.001-.33-.11-.54-.332a1.1 1.1 0 0 1-.315-.794v-3.862h-1.01v3.862c0 .308.08.573-.13.794q-.315.333-.755.332c-.44-.001-.544-.11-.754-.332a1.1 1.1 0 0 1-.315-.794v-7.868l-2.789-3.35a.96.96 0 0 1-.267-.684q0-.402.267-.684c.179-.188.395.131.65.131q.38 0 .649.282l2.177 2.293h3.514l2.177-2.293a.86.86 0 0 1 .65-.282q.38 0 .649.282a.96.96 0 0 1 .267.684q0 .402-.267.684zm9.045 3.66v6.297a.92.92 0 0 1-.26.657.83.83 0 0 1-.625.275.83.83 0 0 1-.624-.275.92.92 0 0 1-.26-.657v-3.196h-1.435v3.196a.92.92 0 0 1-.26.657.83.83 0 0 1-.625.275.83.83 0 0 1-.624-.275.92.92 0 0 1-.26-.657v-6.296l-2.308-2.43a.8.8 0 0 1-.221-.566q0-.332.221-.566a.7.7 0 0 1 .537-.233q.316 0 .538.233l1.801 1.897h3.836l1.802-1.897a.7.7 0 0 1 .537-.233q.316 0 .537.233a.8.8 0 0 1 .221.566q0 .333-.22.566l-2.308 2.43zm-2.502-2.693a2 2 0 1 1 0-4 2 2 0 0 1 0 4M7.504 7.279a2.229 2.229 0 1 1 0-4.458 2.229 2.229 0 0 1 0 4.458"/></svg>
