<svg xmlns="http://www.w3.org/2000/svg" xmlns:xlink="http://www.w3.org/1999/xlink" width="24" height="24" viewBox="0 0 24 24"><g transform="translate(-5 -5)"><defs><path id="a" d="M6.025 19a2 2 0 1 0 0-4 2 2 0 0 0 0 4"/></defs><g fill="none" fill-rule="evenodd"><path fill="#000" stroke="#000" d="M10.011 14.52a2 2 0 1 0 0-4 2 2 0 0 0 0 4Zm2.227 11v-7.423l5.392-1.472c.451-.122.8-.523.788-.991a1.002 1.002 0 0 0-1.261-.953L8.743 17.02c-.838.257-1.25 1.058-1.25 1.886v6.614z"/><path stroke="#000" d="m18.278 14.832 2.733-3.812"/><g transform="translate(6.511 7.52)"><use xlink:href="#a" fill="#000"/><path stroke="#fff" stroke-width="2" d="M6.025 14a3 3 0 0 1 2.121.879A3 3 0 0 1 9.025 17a3 3 0 0 1-.879 2.121A3 3 0 0 1 6.025 20a3 3 0 0 1-2.121-.879A3 3 0 0 1 3.024 17c0-.828.337-1.578.88-2.121A3 3 0 0 1 6.024 14Z"/><use xlink:href="#a" stroke="#000" stroke-width=".5"/></g><path fill="#000" stroke="#000" stroke-width=".5" d="M18.53 26.52a2 2 0 1 0 0-4 2 2 0 0 0 0 4Zm5.981 0a2 2 0 1 0 0-4 2 2 0 0 0 0 4Z"/><path stroke="#000" d="M15.151 20.509h10.36a1 1 0 0 0 1-1V8.52a1 1 0 0 0-1-1h-17a1 1 0 0 0-1 1v1"/></g></g></svg>
