<svg xmlns="http://www.w3.org/2000/svg" width="24" height="24" viewBox="0 0 24 24"><g fill="none" fill-rule="evenodd"><path stroke="#000" d="m12 21.315 2.944-3.823H19a2.5 2.5 0 0 0 2.5-2.5V5A2.5 2.5 0 0 0 19 2.5H5A2.5 2.5 0 0 0 2.5 5v9.992a2.5 2.5 0 0 0 2.5 2.5h4.067l2.934 3.823z"/><path fill="#000" d="M15.774 7.003h1.964c.578 0 1.258.852 1.258 1.419l.011 5.17c0 .566-.68 1.391-1.258 1.391H6.262C5.68 14.983 5 14.158 5 13.591V8.238c0-.567.67-1.235 1.25-1.235h2.89l1.234-1.327c.19-.204.462-.676.769-.676h2.625c.287 0 .54.46.743.655zm-6.145 3.81c0 1.53 1.277 2.778 2.843 2.778 1.57 0 2.844-1.248 2.844-2.779 0-1.533-1.274-2.778-2.844-2.778-1.566 0-2.843 1.245-2.843 2.778zm6.065-2.789v1.192h2.055V8.024z"/></g></svg>
