<svg xmlns="http://www.w3.org/2000/svg" width="24" height="24" viewBox="0 0 24 24"><path fill-rule="evenodd" d="M11.858 16.096 8.8 13.9c-.8-.7-1-1.8-.5-2.7l2.083-3.644-1.054-.328c-.164-.065-.37-.048-.706.08-.294.16-.662.35-1.089.565l-.159.08a115 115 0 0 1-1.945.95l-.86-1.806a107 107 0 0 0 1.91-.933l.155-.078c.437-.22.806-.41 1.086-.564l.108-.05c.8-.32 1.514-.392 2.165-.128l1.3.4.132.051 1.721.81a2.96 2.96 0 0 1 1.347 1.348l.825 1.653c.13.303.349.394.781.394H19v2h-2.9c-1.201 0-2.16-.536-2.594-1.553l-.4-.8-1.74 3.118 1.733 1.735c.901.8 1.101 2.1.7 3.2L12.1 22H10l1.9-5a.89.89 0 0 0-.042-.904M17 4a2 2 0 1 1-4.001-.001A2 2 0 0 1 17 4m4 13a2 2 0 1 1-4.001-.001A2 2 0 0 1 21 17M2 17v-2h4.5c.29 0 .605-.158.8-.4l.3-.4 1.6 1.2-.32.425C8.296 16.558 7.41 17 6.5 17z"/></svg>
