<svg xmlns="http://www.w3.org/2000/svg" width="24" height="24" viewBox="0 0 24 24"><path fill-rule="evenodd" d="M6.497 15.93v1.412c0 1.72-2.486 1.74-2.486 0V15.93H3v-4.42c0-1.187.955-1.408 1.493-1.476l1.362-3.1c.256-.662.81-1.509 1.857-1.509H9.03v-.877c0-.363.197-.547.518-.547h4.931c.32 0 .517.184.517.547v.877h1.25c1.046 0 1.6.847 1.857 1.509l1.36 3.1c.54.068 1.495.289 1.495 1.476v4.421h-.98v1.412c0 1.74-2.486 1.72-2.486 0V15.93zM6.14 9.951h11.74l-.819-2.314c-.128-.384-.32-.662-.768-.666H7.727c-.448.004-.64.282-.769.666zm-.128 3.151a1.16 1.16 0 0 0 1.149-1.172 1.16 1.16 0 0 0-1.149-1.172 1.16 1.16 0 0 0-1.148 1.172 1.16 1.16 0 0 0 1.148 1.172m11.995 0a1.16 1.16 0 0 0 1.149-1.172 1.16 1.16 0 0 0-1.149-1.172 1.16 1.16 0 0 0-1.148 1.172 1.16 1.16 0 0 0 1.148 1.172"/></svg>
