<svg xmlns="http://www.w3.org/2000/svg" width="20" height="20" viewBox="0 0 20 20"><path fill="currentColor" d="M10.937 13.886a.324.324 0 0 0-.076-.22.264.264 0 0 0-.21-.086h-1.3a.292.292 0 0 0-.297.306v1.221c0 .088.029.159.089.211.06.052.128.078.208.078h1.3c.196 0 .293-.097.286-.289zm-.362-1.086c.078 0 .147-.03.207-.087a.281.281 0 0 0 .088-.203l.127-5.253a.27.27 0 0 0-.09-.202.279.279 0 0 0-.207-.087H9.298a.287.287 0 0 0-.295.289l.103 5.253c0 .077.029.144.088.203a.286.286 0 0 0 .206.087zm-.584-9.3c.185 0 .344.059.477.177.134.121.245.253.335.404l6.501 11.043c.058.088.104.182.14.284a.946.946 0 0 1 .056.328c0 .272-.108.468-.321.585a1.38 1.38 0 0 1-.685.179H3.504c-.242 0-.469-.059-.685-.179-.213-.117-.319-.313-.319-.585 0-.109.018-.219.049-.323.036-.105.083-.201.145-.289L9.181 4.081c.09-.151.2-.283.332-.404a.695.695 0 0 1 .478-.177"/></svg>