<svg xmlns="http://www.w3.org/2000/svg" viewBox="0 0 20 20">
<path d="M7.5 3C5.567 3 4 4.68 4 6.75 4 8.82 7.5 12 7.5 12S11 8.821 11 6.75C11 4.68 9.433 3 7.5 3zM16.081 7c-1.06 0-1.918.859-1.918 1.919 0 .193.035.375.088.551l-4.78 4.78a1.91 1.91 0 00-.552-.087 1.919 1.919 0 101.918 1.918 1.91 1.91 0 00-.088-.551l4.78-4.78c.177.052.359.087.552.087a1.919 1.919 0 100-3.837zM2 2v3a1 1 0 11-2 0V0h5a1 1 0 110 2H2zm0 16h3a1 1 0 010 2H0v-5a1 1 0 012 0v3zM20 0v5a1 1 0 01-2 0V2h-3a1 1 0 010-2h5zm-2 18v-3a1 1 0 012 0v5h-5a1 1 0 010-2h3z"/>
</svg>
