<svg xmlns="http://www.w3.org/2000/svg" width="20" height="20" viewBox="0 0 20 20"><path fill="currentColor" d="M16.5 1l1 1v14l-1 1V2H5l-.5 1h11v15l-1 1H3V3l1-2h12.5zm-6.1 12.844H8.202V16H10.4v-2.156zM9.35 5.766q-.77 0-1.393.259t-1.064.721q-.441.462-.686 1.092-.245.63-.259 1.386h2.058q0-.378.084-.707.084-.329.259-.574.175-.245.448-.392.273-.147.651-.147.56 0 .875.308.315.308.315.952.014.378-.133.63-.147.252-.385.462-.238.21-.518.42t-.532.497q-.252.287-.441.693-.189.406-.231 1.008v.63h1.89v-.532q.056-.42.273-.7.217-.28.497-.497.28-.217.595-.434.315-.217.574-.525.259-.308.434-.742t.175-1.106q0-.406-.175-.875t-.581-.875q-.406-.406-1.071-.679-.665-.273-1.659-.273z"/></svg>