<svg xmlns="http://www.w3.org/2000/svg" width="20" height="20" viewBox="0 0 20 20"><path fill="currentColor" d="M2.269 2.404l.358-.334.412-.07 1.662.066 2.757.111a1 1 0 1 1-.079 1.998l-1.496-.06L9 7.232A1.25 1.25 0 0 1 7.232 9L4.115 5.883l.06 1.496a1 1 0 1 1-1.998.079l-.089-2.209L2 3.039c.073-.462-.014-.249.269-.635zm15.722 0c.283.386.195.173.269.635l-.089 2.21-.088 2.209a1 1 0 1 1-1.998-.079l.059-1.496L12.768 9A1.25 1.25 0 0 1 11 7.232l3.377-3.117-1.496.06a1 1 0 1 1-.08-1.998l2.758-.111L17.221 2l.411.07.359.334zM2.269 17.856c-.283-.387-.196-.174-.269-.636l.088-2.209.089-2.21a1 1 0 1 1 1.998.08l-.06 1.496 3.117-3.145A1.25 1.25 0 0 1 9 13l-3.117 3.144 1.496-.06a1 1 0 0 1 .079 1.999l-2.757.11-1.662.067-.412-.071-.358-.333zm15.722 0c.283-.387.195-.174.269-.636l-.089-2.209-.088-2.21a1 1 0 1 0-1.998.08l.059 1.496L12.768 11A1.25 1.25 0 0 0 11 12.768l3.377 3.376-1.496-.06a1 1 0 0 0-.08 1.999l2.758.11 1.662.067.411-.071.359-.333z"/></svg>