<svg xmlns="http://www.w3.org/2000/svg" width="20" height="20" viewBox="0 0 20 20"><circle cx="10" cy="10" r="7.5" fill="transparent" stroke="currentColor"/><path fill="currentColor" d="M12.042 13.592l-.14.572c-.419.165-.753.29-1.003.377-.25.087-.54.13-.87.13-.507 0-.902-.123-1.183-.371a1.2 1.2 0 0 1-.422-.943c0-.148.01-.299.031-.453.022-.155.055-.33.102-.524l.52-1.854c.047-.177.086-.346.118-.504.032-.159.048-.304.048-.435 0-.237-.05-.402-.146-.495-.098-.093-.284-.14-.559-.14a1.45 1.45 0 0 0-.416.064 5.698 5.698 0 0 0-.365.12l.14-.571c.343-.14.67-.26.984-.359.313-.1.61-.149.888-.149.504 0 .892.122 1.165.365s.41.56.41.95c0 .08-.01.221-.029.424a2.88 2.88 0 0 1-.105.559l-.52 1.847c-.042.148-.08.318-.114.508s-.051.334-.051.432c0 .245.055.412.165.501.11.089.3.133.571.133.127 0 .271-.022.432-.066.16-.045.277-.084.349-.118zm.133-7.75c0 .321-.121.595-.365.822-.243.226-.536.34-.879.34-.343 0-.637-.114-.882-.34a1.078 1.078 0 0 1-.368-.822c0-.322.122-.597.368-.825a1.25 1.25 0 0 1 .882-.343c.343 0 .636.114.88.343.243.228.364.503.364.825z"/></svg>