<svg xmlns="http://www.w3.org/2000/svg" width="20" height="20" viewBox="0 0 20 20"><path fill="currentColor" d="M7.572 3.208c-.254.225-2.844 2.625-3.25 3a1 1 0 0 0 0 1.469l3.25 3a1 1 0 1 0 1.356-1.469L7.839 8.202c1.302.017 1.708.017 3.075.231C12.958 8.861 14 9.766 14 11.443c0 1.97-1.091 2.842-3.376 3.141-3.117.096-3.209.095-3.374.095a1.25 1.25 0 1 0 0 2.5c1.97.027 2.761.007 3.698-.116 3.392-.444 5.552-2.171 5.552-5.62 0-3.076-1.999-4.814-5.074-5.457 0 0-1.895-.283-3.569-.287.333-.349.721-.662 1.071-1.022.422-.432.446-.954.057-1.413-.306-.36-1.105-.329-1.413-.056z"/></svg>