<svg xmlns="http://www.w3.org/2000/svg" width="20" height="20" viewBox="0 0 20 20"><path fill="currentColor" d="M2 2v3a1 1 0 1 1-2 0V0h5a1 1 0 1 1 0 2H2zm0 16h3a1 1 0 0 1 0 2H0v-5a1 1 0 0 1 2 0v3zM20 0v5a1 1 0 0 1-2 0V2h-3a1 1 0 0 1 0-2h5zm-2 18v-3a1 1 0 0 1 2 0v5h-5a1 1 0 0 1 0-2h3z"/><path fill="inherit" d="M9 4.207V6c3.765.045 7 1.39 7 5.129 0 1.508-.928 3.003-1.953 3.784-.32.244-.776-.062-.658-.457C14.452 10.895 12.635 10.055 9 10v1.793a.5.5 0 0 1-.854.353L4.354 8.354a.5.5 0 0 1 0-.708l3.792-3.792A.5.5 0 0 1 9 4.207z"/></svg>