<svg xmlns="http://www.w3.org/2000/svg" width="20" height="20" viewBox="0 0 20 20"><path fill="currentColor" d="M9.357 10.404l-.359-.334-.411-.07-1.662.066-2.758.111a1 1 0 1 0 .08 1.998l1.496-.06-3.377 3.117A1.25 1.25 0 0 0 4.134 17l3.377-3.117-.06 1.496a1 1 0 1 0 1.998.079l.088-2.209.089-2.21c-.073-.462.014-.249-.269-.635zm.912-1.415c-.283-.386-.196-.173-.269-.635l.088-2.209.089-2.21a1 1 0 1 1 1.998.08l-.06 1.496 3.117-3.145A1.25 1.25 0 0 1 17 4.134l-3.117 3.144 1.496-.06a1 1 0 0 1 .079 1.999l-2.757.11-1.662.066-.412-.07-.358-.334z"/></svg>