<svg xmlns="http://www.w3.org/2000/svg" width="20" height="20" viewBox="0 0 20 20"><path fill="currentColor" d="M6.893 2.5h6.214L17.5 6.893v6.214L13.107 17.5H6.893L2.5 13.107V6.893L6.893 2.5zm4.04 10.416a.324.324 0 0 0-.076-.22.264.264 0 0 0-.21-.086h-1.3a.292.292 0 0 0-.297.306v1.221c0 .088.029.159.089.211.06.052.128.078.208.078h1.3c.196 0 .293-.097.286-.289v-1.221zm-.361-1.084c.078 0 .147-.03.207-.087a.281.281 0 0 0 .088-.203l.127-5.253a.27.27 0 0 0-.09-.202.279.279 0 0 0-.207-.087H9.295A.287.287 0 0 0 9 6.289l.103 5.253c0 .077.029.144.088.203a.286.286 0 0 0 .206.087h1.175z"/></svg>