<svg xmlns="http://www.w3.org/2000/svg" width="20" height="20" viewBox="0 0 20 20"><path fill="currentColor" fill-opacity=".253" d="M6.5 6.5h7v7h-7v-7z"/><path fill="currentColor" d="M5.5 3A2.5 2.5 0 0 0 3 5.5c0 .958.543 1.788 1.333 2.208v4.584A2.502 2.502 0 0 0 3 14.5 2.5 2.5 0 0 0 5.5 17c.958 0 1.788-.543 2.208-1.333h4.584c.42.79 1.25 1.333 2.208 1.333a2.5 2.5 0 0 0 2.5-2.5c0-.958-.543-1.788-1.333-2.208V7.708A2.502 2.502 0 0 0 17 5.5 2.5 2.5 0 0 0 14.5 3c-.969 0-1.804.558-2.219 1.365l-.062-.032H7.708A2.502 2.502 0 0 0 5.5 3zm0 1.5a1 1 0 1 1 0 2 1 1 0 0 1 0-2zm9 0a1 1 0 1 1 0 2 1 1 0 0 1 0-2zM7.708 6.667h4.584c.234.441.6.807 1.041 1.041v4.584c-.441.234-.807.6-1.041 1.041H7.708a2.523 2.523 0 0 0-1.041-1.041V7.708c.441-.234.807-.6 1.041-1.041zM5.5 13.5a1 1 0 1 1 0 2 1 1 0 0 1 0-2zm9 0a1 1 0 1 1 0 2 1 1 0 0 1 0-2z"/></svg>