<svg xmlns="http://www.w3.org/2000/svg" width="20" height="20" viewBox="0 0 20 20"><path fill="currentColor" d="M10 18a8 8 0 1 1 0-16 8 8 0 0 1 0 16zm2.042-4.408a2.396 2.396 0 0 1-.35.118 1.64 1.64 0 0 1-.43.066c-.272 0-.462-.044-.572-.133-.11-.089-.165-.256-.165-.501 0-.098.017-.242.05-.432.034-.19.073-.36.115-.508l.52-1.847c.051-.17.086-.355.105-.559.02-.203.029-.345.029-.425 0-.39-.137-.706-.41-.949-.273-.243-.661-.365-1.165-.365-.279 0-.575.05-.888.15-.313.099-.641.218-.984.358l-.14.571c.102-.038.223-.078.365-.12a1.45 1.45 0 0 1 .416-.064c.275 0 .461.047.559.14.097.093.146.258.146.495 0 .131-.016.276-.048.435-.032.158-.07.327-.117.504l-.521 1.854c-.047.195-.08.37-.102.524a3.342 3.342 0 0 0-.031.453c0 .381.14.695.422.943.281.248.676.371 1.184.371.33 0 .62-.043.87-.13.249-.086.583-.212 1.002-.377l.14-.572zm.133-7.75c0-.322-.121-.597-.365-.825a1.238 1.238 0 0 0-.879-.343 1.25 1.25 0 0 0-.882.343 1.087 1.087 0 0 0-.368.825c0 .321.122.595.368.822.245.226.54.34.882.34.343 0 .636-.114.88-.34.243-.227.364-.5.364-.822z"/></svg>