<svg xmlns="http://www.w3.org/2000/svg" width="20" height="20" viewBox="0 0 20 20"><path fill="currentColor" d="M14.5 3a2.5 2.5 0 1 1 0 5c-1.011-.03-1.849-.571-2.24-1.5H8.029l3.998 3.748c.625-.263.3-.18.973-.248a2.5 2.5 0 1 1-2.5 2.5c.061-.605-.015-.348.169-.784L6.5 7.808v4.451c.99.334 1.403 1.275 1.5 2.241a2.5 2.5 0 1 1-5 0c.03-1.011.571-1.849 1.5-2.24V7.74C3.51 7.407 3.097 6.465 3 5.5A2.5 2.5 0 0 1 5.5 3c1.011.03 1.85.571 2.24 1.5h4.52c.333-.99 1.275-1.403 2.24-1.5zm-9 10.5a1 1 0 1 0 0 2 1 1 0 0 0 0-2zm7.5-2a1 1 0 1 0 0 2 1 1 0 0 0 0-2zm-7.5-7a1 1 0 1 0 0 2 1 1 0 0 0 0-2zm9 0a1 1 0 1 0 0 2 1 1 0 0 0 0-2z"/></svg>