<svg xmlns="http://www.w3.org/2000/svg" width="20" height="20" viewBox="0 0 20 20"><path fill="currentColor" d="M10.452 3q.563 0 .963.4.399.4.399.971 0 .563-.399.962-.4.4-.972.4-.562 0-.962-.4-.4-.399-.4-.962 0-.571.4-.971t.971-.4zM8 15.744v-.729q.993-.036 1.147-.123s.145-.102.198-.493c.18-1.008.211-3.337.017-4.983a1.51 1.51 0 0 0-.11-.628q-.109-.119-.593-.137L8 8.625v-.677q2.118-.158 3.489-.747l.22.176q-.123 1.679-.123 4.887 0 1.854.061 2.241.044.272.163.351.119.08 1.156.159v.729q-1.591-.053-2.461-.053-.466 0-2.505.053z"/></svg>