<?xml version="1.0" encoding="UTF-8"?>
<svg width="20px" height="20px" viewBox="0 0 20 20" version="1.1" xmlns="http://www.w3.org/2000/svg" xmlns:xlink="http://www.w3.org/1999/xlink">
    <!-- Generator: Sketch 60 (88103) - https://sketch.com -->
    <title>icon-frame-feature</title>
    <desc>Created with Sketch.</desc>
    <g id="Page-1" stroke="none" stroke-width="1" fill="none" fill-rule="evenodd">
        <g id="Artboard" fill="#000000" fill-rule="nonzero">
            <g id="icon-frame-feature">
                <path d="M10,4 C7.23833333,4 5,6.42542857 5,9.41635714 C5,12.4082143 10,17 10,17 C10,17 15,12.4082143 15,9.41635714 C15,6.42542857 12.7616667,4 10,4 Z" id="Shape"></path>
                <path d="M2,2 L2,5 C2,5.55228475 1.55228475,6 1,6 C0.44771525,6 0,5.55228475 0,5 L0,0 L5,0 C5.55228475,0 6,0.44771525 6,1 C6,1.55228475 5.55228475,2 5,2 L2,2 Z M2,18 L5,18 C5.55228475,18 6,18.4477153 6,19 C6,19.5522847 5.55228475,20 5,20 L0,20 L0,15 C0,14.4477153 0.44771525,14 1,14 C1.55228475,14 2,14.4477153 2,15 L2,18 Z M20,0 L20,5 C20,5.55228475 19.5522847,6 19,6 C18.4477153,6 18,5.55228475 18,5 L18,2 L15,2 C14.4477153,2 14,1.55228475 14,1 C14,0.44771525 14.4477153,0 15,0 L20,0 Z M18,18 L18,15 C18,14.4477153 18.4477153,14 19,14 C19.5522847,14 20,14.4477153 20,15 L20,20 L15,20 C14.4477153,20 14,19.5522847 14,19 C14,18.4477153 14.4477153,18 15,18 L18,18 Z" id="Shape"></path>
            </g>
        </g>
    </g>
</svg>