<svg xmlns="http://www.w3.org/2000/svg" width="20" height="20" viewBox="0 0 20 20"><path fill="currentColor" d="M16 8.606c.69 0 1.25.553 1.25 1.235v5.925c0 .681-.56 1.234-1.25 1.234H4c-.69 0-1.25-.553-1.25-1.234V9.841c0-.682.56-1.235 1.25-1.235s1.25.553 1.25 1.235v4.69h9.5v-4.69c0-.682.56-1.235 1.25-1.235z"/><path fill="currentColor" d="M10.009 12.498c.391.031.688-.249.688-.249s2.66-2.704 3.051-3.198c.34-.429.35-1.02-.056-1.388a1.015 1.015 0 0 0-1.415.056l-1.017 1.08V3.228A1.24 1.24 0 0 0 10.009 2a1.24 1.24 0 0 0-1.252 1.228v5.571l-1.016-1.08a1.015 1.015 0 0 0-1.415-.056.961.961 0 0 0-.057 1.388c.58.587 3.067 3.198 3.067 3.198s.282.218.673.249z"/></svg>