<?xml version="1.0" encoding="UTF-8"?>
<svg width="20px" height="20px" viewBox="0 0 20 20" version="1.1" xmlns="http://www.w3.org/2000/svg" xmlns:xlink="http://www.w3.org/1999/xlink">
    <!-- Generator: Sketch 60 (88103) - https://sketch.com -->
    <title>icon-crosshair</title>
    <desc>Created with Sketch.</desc>
    <g id="Page-1" stroke="none" stroke-width="1" fill="none" fill-rule="evenodd">
        <g id="Artboard" fill="#010002" fill-rule="nonzero">
            <g id="icon-crosshair">
                <path d="M10.0002009,0 C10.4161422,0 10.7597579,0.311346341 10.8101923,0.713910146 L10.8165651,0.816324071 L10.8165651,3.03222152 C13.9730898,3.40482442 16.5009075,5.83584456 16.9961768,8.9314156 L17.0318519,9.18383661 L19.1837161,9.18383661 C19.6346406,9.18383661 20,9.54923614 20,10.0001607 C20,10.4163987 19.6886879,10.7597634 19.2860978,10.8101258 L19.1836759,10.8164848 L17.0428991,10.8164848 C16.6928966,13.9885833 14.2187718,16.5341542 11.0667136,17.019643 L10.8164848,17.053665 L10.8164848,19.1836759 C10.8164848,19.6346005 10.4507639,20 10.0001607,20 C9.58392264,20 9.24055799,19.6886879 9.19019561,19.2860978 L9.18383661,19.1836759 L9.18383661,17.0608557 C5.97040476,16.7076827 3.39616225,14.2229125 2.93219505,11.0667059 L2.8999771,10.8161634 L0.816324071,10.8161634 C0.365399525,10.8161634 0,10.4507639 0,9.99983931 C0,9.58360127 0.311346341,9.24023662 0.713910146,9.18987424 L0.816324071,9.18351524 L2.91110459,9.18351524 C3.29833061,6.03243567 5.78271548,3.51589261 8.93375182,3.05666421 L9.18387679,3.02470946 L9.18387679,0.816324071 C9.18387679,0.365399525 9.54923614,0 10.0002009,0 Z M9.18387679,4.67603733 C6.89726955,5.00432647 5.0671618,6.73131865 4.60732583,8.95238585 L4.56468206,9.18387679 L7.29160055,9.18387679 C7.7425251,9.18387679 8.10792462,9.54927631 8.10792462,10.0002009 C8.10792462,10.4164389 7.79661251,10.7598036 7.39402238,10.8101659 L7.29160055,10.8165249 L4.55162634,10.8165249 C4.88436259,13.1119735 6.66880147,14.9447523 8.95374891,15.3719319 L9.18387679,15.4099296 L9.18387679,12.7088012 C9.18387679,12.2578766 9.54923614,11.8924771 10.0002009,11.8924771 C10.4161422,11.8924771 10.7597579,12.2037892 10.8101607,12.6063793 L10.8165249,12.7088012 L10.8165249,15.4014132 C13.1049961,15.0482325 14.9251058,13.2926325 15.3524497,11.0501998 L15.3916516,10.8165249 L12.7084798,10.8165249 C12.2575552,10.8165249 11.8921557,10.4511254 11.8921557,10.0002009 C11.8921557,9.58396281 12.2034678,9.24059816 12.606058,9.19023578 L12.7084798,9.18387679 L15.3782343,9.18387679 C15.0168211,6.9477905 13.276525,5.16756557 11.0486929,4.7254411 L10.8165249,4.6845135 L10.8165249,7.29160055 C10.8165249,7.7425251 10.450804,8.10792462 10.0002009,8.10792462 C9.58396281,8.10792462 9.24059816,7.79661251 9.19023578,7.39402238 L9.18387679,7.29160055 L9.18387679,4.67603733 Z" id="Shape"></path>
            </g>
        </g>
    </g>
</svg>