<svg xmlns="http://www.w3.org/2000/svg" width="31" height="25"><path fill-rule="evenodd" fill="#0E78AD" d="M23.238 14.564a7.078 7.078 0 1 1 0-14.156 7.078 7.078 0 0 1 0 14.156zm3.933-9.546l-1.445-1.445-2.46 2.46-2.457-2.457-1.445 1.445 2.456 2.457-2.463 2.463 1.445 1.445 2.464-2.463 2.466 2.467 1.445-1.445-2.466-2.467 2.46-2.46zM6.031 10h8.484c.203.706.489 1.376.847 2H6.031v-2zm17.208 6.571c.963 0 1.89-.153 2.761-.43V18H6v-2h14.093a9.041 9.041 0 0 0 3.146.571zM1.997 24.788a1.791 1.791 0 1 1 .002-3.582 1.791 1.791 0 0 1-.002 3.582zm0-6a1.791 1.791 0 1 1 .002-3.582 1.791 1.791 0 0 1-.002 3.582zm0-6a1.791 1.791 0 1 1 .002-3.582 1.791 1.791 0 0 1-.002 3.582zM26 24H6v-2h20v2z"/></svg>