<svg xmlns="http://www.w3.org/2000/svg" width="20" height="20"><path fill-rule="evenodd" fill="#0e78ad" d="M17.92 6.537l.085 1.474h-5.041l-.003.031h-.956v-.031h-.031l.009-.969.022-.002V2.042h1.496l-.305 3.385 4.591-4.59 1.37 1.37-4.618 4.617 3.381-.287zm-9.925 6.455v4.997H6.499l.305-3.385-4.591 4.59-1.37-1.37 4.618-4.617-3.381.287-.085-1.473h5.041l.003-.032h.956v.032h.031l-.009.969-.022.002zm0-4.95h-.956l-.003-.031H1.995l.085-1.474 3.381.287L.843 2.207l1.37-1.37 4.591 4.59-.305-3.385h1.496V7.04l.022.002.009.969h-.031v.031zm4.01 3.947h.956l.003.032h5.041l-.085 1.473-3.381-.287 4.618 4.617-1.37 1.37-4.591-4.59.305 3.385h-1.496v-4.997l-.022-.002-.009-.969h.031v-.032z"/></svg>