<svg xmlns="http://www.w3.org/2000/svg" width="19" height="17"><path fill-rule="evenodd" fill="#0e78ad" d="M17.995.992v4.997h-1.496l.305-3.385-4.591 4.59-1.37-1.37 4.618-4.617-3.381.287-.085-1.473h5.041l.003-.032h.956v.032h.031l-.009.969-.022.002zM6.92 14.537l.085 1.474H1.964l-.003.031h-.956v-.031H.974l.009-.969.022-.002v-4.998h1.496l-.305 3.385 4.591-4.59 1.37 1.37-4.618 4.617 3.381-.287zm-.133-7.343l-4.591-4.59.305 3.385H1.005V.992L.983.99.974.021h.031v-.032h.956l.003.032h5.041L6.92 1.494l-3.381-.287 4.618 4.617-1.37 1.37zm5.426 1.643l4.591 4.59-.305-3.385h1.496v4.998l.022.002.009.969h-.031v.031h-.956l-.003-.031h-5.041l.085-1.474 3.381.287-4.618-4.617 1.37-1.37z"/></svg>