<svg xmlns="http://www.w3.org/2000/svg" width="9" height="18"><path fill-rule="evenodd" fill="#0e78ad" d="M6.607 17.775H1.705c.005 0-.763-.127-.861-.626C.736 16.594.722 16.244 1 16s.316 0 1 0h1V8H2c-.654 0-.458-.04-1 0-.376.028-.632-.587-.632-1.163 0-.576.265-.846.632-.837.336.008.326 0 1 0h4c.146.112 0 .805 0 1v9h2c.283.244.5.584.467 1.149-.05.871.801.626-1.86.626zM6 6c-.146-.112.273 0 0 0zm2 10c-.283-.244.674 0 0 0zM5.806 2.845C5.596 3.085 4.781 3 4 3H3c.062-.001 0-.327 0-1C3 .75 2.993.409 3 0c.001-.033.228 0 1 0h2c.062.002.001.895 0 1-.006.452.016 1.606-.194 1.845zM3 3c-.036 0-.033 0 0 0z"/></svg>