<svg xmlns="http://www.w3.org/2000/svg" width="31" height="29"><path fill-rule="evenodd" fill="#0E78AD" d="M22.208 11.306l-5.859 9.673h-.697l-5.857-9.673h.031a6.864 6.864 0 0 1-.865-3.315A7.038 7.038 0 0 1 16 .955a7.037 7.037 0 0 1 7.039 7.036 6.933 6.933 0 0 1-.852 3.315h.021zm-6.465 6.809h.493l4.16-6.807h-8.789l4.136 6.807zm.286-15.14a5.007 5.007 0 0 0-5.011 5.003 4.93 4.93 0 0 0 1.303 3.328h7.416a4.93 4.93 0 0 0 1.303-3.328 5.007 5.007 0 0 0-5.011-5.003zm.001 7.06a2.06 2.06 0 1 1 0-4.117c1.139 0 2.063.922 2.063 2.059a2.06 2.06 0 0 1-2.063 2.058zm-4.536 6.529l-6.515 3.617 2.295 1.136 5.528-2.744.727 1.116-4.777 2.358 3.472 1.718 3.336-1.656 1.423.003.67-1.042 5.586-2.773-3.011-1.236.894-1.392 9.349 3.98-13.459 8.53L.935 20.336l9.539-5.337 1.02 1.565zm15.12 3.12l-1.727-.71-3.645 1.8 1.123 1.707 4.249-2.797zM16.9 26.078l4.424-2.912-1.24-1.821-6.381 3.151 3.197 1.582z"/></svg>