<svg xmlns="http://www.w3.org/2000/svg" width="25" height="24">
	<path fill="none" stroke="#0E78AD" stroke-linecap="square" stroke-width="2" d="m3.94 21.857 3-9 5.143-5.143L19.368 3" />
	<path fill="#0E78AD"
		  d="M1.421 22.323A3.429 3.429 0 0 1 4.5 17.145a3.43 3.43 0 0 1 3.434 3.427A3.429 3.429 0 0 1 4.5 23.997a3.429 3.429 0 0 1-3.078-1.674ZM5.52 13.46a2.101 2.101 0 0 1 1.887-3.173c1.162 0 2.104.94 2.104 2.1a2.101 2.101 0 0 1-2.104 2.1 2.101 2.101 0 0 1-1.886-1.026Zm7.03-4.116a2.101 2.101 0 1 1 0-4.2c1.162 0 2.104.94 2.104 2.1a2.101 2.101 0 0 1-2.104 2.1Zm8.235-2.489a3.429 3.429 0 1 1 0-6.852 3.43 3.43 0 0 1 3.434 3.426 3.429 3.429 0 0 1-3.434 3.426Z" />
	<path fill="#0E78AD"
		  d="M13 13.155h1.658v.934c.593-.726 1.3-1.089 2.12-1.089.435 0 .812.09 1.132.27.32.181.583.454.788.82.299-.366.62-.639.967-.82.345-.18.714-.27 1.107-.27.5 0 .922.102 1.268.306.345.204.604.504.774.9.124.292.186.764.186 1.417V20h-1.799v-3.913c0-.678-.062-1.117-.186-1.314-.166-.258-.422-.387-.768-.387a1.22 1.22 0 0 0-.71.232 1.287 1.287 0 0 0-.48.68c-.099.299-.148.77-.148 1.415V20H17.11v-3.751c0-.666-.032-1.096-.096-1.29a.823.823 0 0 0-.298-.431c-.134-.095-.317-.142-.547-.142-.277 0-.527.075-.749.225-.222.15-.38.368-.477.651-.096.284-.144.755-.144 1.412V20H13v-6.845Z" />
</svg>
