<svg xmlns="http://www.w3.org/2000/svg" width="14" height="19" viewBox="0 0 14 19">
	<path fill="#0E78AD"
		  d="M13.17 9.82L7.35 19h-.7L.83 9.82h.03A6.28 6.28 0 010 6.68C0 2.98 3.13 0 7 0c1.86 0 3.64.7 4.95 1.95a6.34 6.34 0 011.2 7.87h.02zm-6.43 6.46h.5l3.48-6.49H3.33l3.41 6.49zm.29-14.36c-1.32 0-2.59.5-3.52 1.38a4.54 4.54 0 00-.17 6.5h7.38a4.54 4.54 0 00-.17-6.5 5.11 5.11 0 00-3.52-1.38zm0 6.7a2.07 2.07 0 01-1.84-.96 1.88 1.88 0 010-2 2.07 2.07 0 011.84-.95 2 2 0 012.05 1.95c0 .52-.22 1.02-.6 1.38-.39.37-.9.58-1.45.58z" />
</svg>
