<svg version="1" xmlns="http://www.w3.org/2000/svg" width="840" height="280"><defs><filter id="a" x="-50%" y="-50%" width="200%" height="200%"><feOffset result="offOut" in="SourceAlpha" dx="2" dy="2"/><feGaussianBlur result="blurOut" in="offOut" stdDeviation="7"/><feBlend in="SourceGraphic" in2="blurOut"/></filter></defs><path fill="#fff" filter="url(#a)" transform="translate(10 10)" d="M761.1 17.1c-14.3 5-22.7 19.7-19.9 34.9 1.3 7.2 3.7 11.6 9 16.6 7.2 7 11.9 8.9 21.8 8.9s14.6-1.9 21.8-8.9c5.3-5 7.7-9.4 9-16.6 4.4-23.9-18.6-43.1-41.7-34.9zM780.9 30c10.9 5.5 13.3 19 5 28.4-7 8-17.5 8.7-25.1 1.8-4.7-4.3-6.8-8.5-6.8-13.9 0-4.3 2.8-11 5.6-13.5 5.8-5.1 14.6-6.3 21.3-2.8zM604.8 41.9c-12 4.7-18 11.7-20.8 24.2-2.3 10.1 2.2 22.6 10.7 29.5 20.6 16.9 51.5 2.5 51.5-24.1 0-9.2-3.1-16.3-10.1-22.7-9.1-8.5-20.7-11-31.3-6.9zm19.3 13.3c11 6.2 12.9 19.8 4.1 29.1C616.9 96 597 87.6 597 71.1c0-4.5 2.6-10.5 5.7-13.3 5.5-5 15.1-6.2 21.4-2.6zm104.1 12c-2.2 1.1-3.9 4.9-3.3 7.8.1.8 4.6 5.9 9.9 11.2 8.1 8.2 10.2 9.8 12.8 9.8 3.9 0 6.7-3 6.6-7.2-.1-2.6-1.7-4.8-9.4-12.4-9.5-9.5-12.5-11.2-16.6-9.2zm-22.5 22c-2.7 2.1-3.7 6-2.2 9.3.7 1.7 5.1 6.7 9.8 11.2 7.2 7.1 8.9 8.3 11.8 8.3 1.9 0 3.9-.4 4.5-.8 2-1.3 3.6-5.3 3-7.6-.3-1.2-5-6.5-10.4-11.9-10.2-9.9-12.7-11.3-16.5-8.5zm-62.2 9.9c-8.4 8.2-10.5 10.8-10.5 13.1 0 3.8 3.2 6.8 7.3 6.8 2.9 0 4.6-1.3 13-9.9 10.3-10.4 11.4-12.8 8-16.9-1-1.2-3-2.4-4.6-2.8-2.5-.6-3.8.4-13.2 9.7zm26.1 9.3c-14.1 6-22.6 20.9-19.7 34.6 3.5 16.3 17.1 26.9 33.1 25.7 16.5-1.1 29.1-14.3 29.3-30.7.2-22.2-22.7-38-42.7-29.6zm20.5 12.8c11.5 6.4 13 21.1 3.2 29.8-6.9 6-14.8 6.5-22.5 1.3-9.2-6.2-10.3-21.1-2.1-28.5 5.5-5 15.1-6.2 21.4-2.6zM297 170.6c-7.5 2-12.9 6.1-16.2 12.4-3.2 6-3.6 11.2-1.3 16.7 3.3 7.8 8.9 11 27.1 15.3 19.1 4.6 23.4 7.3 23.4 15.2 0 9.6-6.5 14.2-20 14.3-7.3 0-9.3-.4-13.5-2.6-5.7-2.9-9.3-7.5-10.1-13.1l-.7-3.8h-4.8c-4.8 0-4.9.1-4.9 3.1 0 6.2 2.3 11.3 7.6 16.6 7 7 15.5 9.7 28.4 9.1 7.7-.4 9.8-.9 15.7-3.9 8.7-4.4 12.2-9.2 13-17.6.7-7.3-.7-11.9-4.9-16.2-4.6-4.7-9.3-6.8-23-10-18.5-4.4-22.1-6.4-23.4-12.7-.8-3.9 1.7-9.8 5.1-12 5.7-3.7 20.7-3.6 25.9.2 2.3 1.8 5.7 7.4 7 11.7.5 1.5 1.5 1.8 5.3 1.5l4.8-.3-.3-3.5c-1.6-16.4-20-25.8-40.2-20.4zm106.6 1.4c-13.8 5.8-21.3 16.9-23.6 34.6-1.9 14.6 2.4 27.6 12.1 36.9 8.4 8 13.1 9.9 25.4 9.9 11.3.1 17.3-1.9 23.2-7.6l3.2-3.1.9 2.4c.5 1.3 1.1 3.3 1.3 4.4.3 1.5 1.3 2.1 4.2 2.3l3.7.3-.2-21.3-.3-21.3h-35v9l12.9.3 12.9.3-.6 4.4c-1.9 13.6-13.8 22.6-27.9 21.1-7.6-.8-12.6-3.4-17.6-9.2-5.3-6.3-7.7-13.7-7.5-23.9.1-13 4.6-23.2 12.6-29 3.6-2.6 5.1-3 12.9-3.3 6.7-.3 9.9 0 13.3 1.3 5.1 1.9 11.1 8.2 12 12.6.6 2.8.9 2.9 6.2 2.9 5.5 0 5.5 0 4.9-2.8-1.4-5.7-5.8-13.2-9.6-16.2-6.9-5.5-12.5-7.4-23-7.7-8.6-.2-10.1 0-16.4 2.7zM15 211.5V252h20l.2-29.7.3-29.7 8.1 29.4 8.1 29.5 8.4.3 8.4.2 8-29.2 8-29.3.3 29.3.2 29.2h21v-81H74.3l-2.7 10.2c-1.5 5.7-4.7 17.7-7 26.8-2.4 9.1-4.6 15.8-4.9 15-.4-.8-2.9-10.5-5.7-21.5-2.9-11-5.8-22.4-6.7-25.3l-1.4-5.2H15v40.5zm128-40.2c0 .2-6.7 18.3-15 40.1-8.2 21.9-15 40-15 40.2 0 .2 4.9.4 10.9.4h10.9l2.3-6.8 2.4-6.7h28.8l2.2 6.5 2.2 6.5 11.1.3 11.2.3-3.1-8.3c-1.7-4.6-8.4-22.8-15.1-40.6l-12-32.2h-10.9c-6 0-10.9.2-10.9.3zm15.6 37l4.1 13.2-8.5.3c-4.6.2-8.7.1-8.9-.2-.6-.6 7.9-26.6 8.7-26.6.3 0 2.3 6 4.6 13.3zm42.4 3.2V252h21v-27h12.3c14.4 0 21-1.6 26.3-6.2 6.2-5.4 7.9-10 7.9-20.8 0-10.9-1.8-15.7-8.1-20.8-6.3-5.2-12.3-6.2-37.2-6.2H201v40.5zm42.8-21c3.6 3 4.8 7.3 3.2 11.9-1.6 5.1-6 6.8-16.2 6.4l-8.3-.3-.3-10.3-.3-10.2h9.5c8.6 0 9.7.2 12.4 2.5zm110.2 21V252h11v-81h-11v40.5zm116 0V252h11v-37h42v37h11v-81h-11v35h-42v-35h-11v40.5zm73-36v4.5h27v72h11v-72h27v-9h-65v4.5z"/></svg>